<?xml version="1.0" standalone="no"?>
<!DOCTYPE svg PUBLIC "-//W3C//DTD SVG 1.1//EN" "http://www.w3.org/Graphics/SVG/1.1/DTD/svg11.dtd" >
<svg xmlns="http://www.w3.org/2000/svg" xmlns:xlink="http://www.w3.org/1999/xlink" version="1.1">
<metadata></metadata>
<defs>
<font id="cream_cakeregular" horiz-adv-x="706" >
<font-face units-per-em="2048" ascent="1612" descent="-436" />
<missing-glyph horiz-adv-x="471" />
<glyph horiz-adv-x="0" />
<glyph horiz-adv-x="0" />
<glyph unicode="&#xd;" horiz-adv-x="0" />
<glyph unicode=" "  horiz-adv-x="471" />
<glyph unicode="&#x09;" horiz-adv-x="471" />
<glyph unicode="&#xa0;" horiz-adv-x="471" />
<glyph unicode="!" horiz-adv-x="548" />
<glyph unicode="&#x22;" horiz-adv-x="436" />
<glyph unicode="#" horiz-adv-x="923" />
<glyph unicode="$" horiz-adv-x="608" />
<glyph unicode="%" horiz-adv-x="868" />
<glyph unicode="&#x26;" horiz-adv-x="1148" />
<glyph unicode="'" horiz-adv-x="217" />
<glyph unicode="(" horiz-adv-x="460" />
<glyph unicode=")" horiz-adv-x="475" />
<glyph unicode="*" horiz-adv-x="307" />
<glyph unicode="+" horiz-adv-x="520" />
<glyph unicode="," horiz-adv-x="280" />
<glyph unicode="-" horiz-adv-x="616" />
<glyph unicode="." horiz-adv-x="253" />
<glyph unicode="/" horiz-adv-x="616" />
<glyph unicode="0" horiz-adv-x="686" d="M-31 248v22q0 161 84 380t189 304q39 31 79 43.5t99 12.5q81 0 138 -41.5t75 -118.5q10 -39 10 -105q0 -179 -85.5 -398t-197.5 -304q-55 -45 -159 -45l-33 2q-94 6 -143.5 74t-55.5 174zM137 203q0 -117 56 -117h4q43 3 94 85t93 199t69 240q28 123 28 205 q0 105 -51 113h-4q-53 0 -122.5 -133t-118 -306t-48.5 -286z" />
<glyph unicode="1" horiz-adv-x="448" d="M-8 723q0 15 14 18q70 20 182.5 105t161.5 145q14 19 47 19q35 0 70 -19t35 -41l-2 -10q-43 -99 -164 -460t-121 -460q0 -8 -5.5 -14t-14.5 -6h-21q-53 0 -75.5 15t-26.5 61q0 131 186 672q-106 -101 -182 -101q-67 3 -84 76z" />
<glyph unicode="2" horiz-adv-x="704" d="M-119 88q0 28 15 43q8 13 53 19v10q0 60 33 102q26 32 103.5 86t160.5 106t177 127.5t150 145.5q48 66 48 127q0 26 -11 43q-23 39 -80 39q-68 0 -141.5 -54t-101.5 -134q-13 -35 -13 -56q0 -1 5 -26v-7q0 -6 -5 -11t-12 -5h-2q-6 1 -25 2.5t-28.5 3t-25 7t-23.5 14.5 t-14.5 25.5t-6.5 39.5v4q0 55 36.5 112.5t98.5 102.5q74 56 195 56l51 -2q101 -6 155 -66t54 -156v-24q-3 -66 -33 -125q-25 -45 -84.5 -102t-151.5 -123.5t-164 -114.5t-179 -117q125 19 223 19q99 0 170 -21q23 -8 36 -28.5t16 -39.5t5 -47.5t4 -37.5v-5q0 -20 -18 -20 q-4 0 -12 4q-56 37 -187 37q-47 0 -107 -5t-99.5 -10.5t-101 -14.5t-75.5 -11h-10q-35 0 -56.5 27.5t-21.5 60.5z" />
<glyph unicode="3" horiz-adv-x="712" d="M-39 170q0 23 13 40t28 17q11 0 16 -8q48 -75 175 -82h20q53 0 98 17.5t74.5 44.5t50 61t30 66.5t9.5 60.5q0 57 -33 57l-10 -2q-29 -10 -86 -10q-48 0 -86 6q-17 3 -29 26t-12 50q0 49 39 49h12q116 0 220 72t131 178q2 6 2 23q0 36 -17.5 69t-48.5 41l-29 4 q-77 0 -157 -69t-80 -152v-6q4 -44 22 -47q11 -3 11 -14q0 -16 -15 -19q-21 -6 -43 -6q-47 0 -78 28.5t-32 79.5v5q0 88 72 156.5t167 92.5q50 11 103 11t94 -13q115 -43 139 -176l4 -37q0 -86 -64 -169.5t-147 -131.5q44 -7 71.5 -63t27.5 -121q0 -33 -11 -70 q-39 -114 -137 -171.5t-223 -57.5q-58 0 -113 12t-106 46.5t-68 86.5q-4 8 -4 25z" />
<glyph unicode="4" horiz-adv-x="671" d="M0 434q0 30 20 41q47 51 159 241t112 249l-2 10q-2 4 -2 14q0 21 18 21q8 0 14 -2q42 -17 58 -70q4 -20 4 -31q0 -72 -53.5 -189t-104.5 -198q62 23 142 23q49 0 73 -8q97 259 180 452q9 23 46 23q34 0 66 -18.5t32 -41.5l-2 -10q-43 -100 -165.5 -460.5t-123.5 -459.5 q0 -8 -5.5 -14t-12.5 -6h-21q-98 0 -110 53l-3 19q0 77 97 393l-23 2q-66 0 -164.5 -40t-140.5 -73q-11 -8 -25 -8q-24 0 -43.5 29t-19.5 59z" />
<glyph unicode="5" horiz-adv-x="649" d="M-68 137q0 17 9 29t20 12t16 -10q30 -52 103 -70q24 -4 39 -4q55 0 108.5 34t91.5 86t65.5 108.5t39.5 107.5q2 8 2 25q0 61 -92 61q-23 0 -53 -4.5t-48 -8.5t-47.5 -12t-31.5 -8l-15 -2q-30 0 -51.5 31t-21.5 61q0 9 4 21q4 7 46 70t71.5 119.5t29.5 90.5l-2 11l-3 2 q-4 2 -7.5 5t-8.5 8t-8 11q-6 12 -6 29q0 27 12 50.5t31 23.5l11 -2q140 -49 251 -49q103 0 131 41q5 8 17 8q10 0 14 -4q11 -8 20 -34t9 -54q0 -47 -25 -72q-35 -35 -135 -35q-74 0 -182 23l4 -19q0 -67 -104 -242q76 13 133 13l45 -4q60 -13 109.5 -66.5t49.5 -118.5 q0 -13 -4 -37q-38 -155 -152.5 -259.5t-264.5 -104.5l-41 2q-46 5 -104.5 42t-72.5 81z" />
<glyph unicode="6" horiz-adv-x="624" d="M-16 242q0 84 28 170q40 118 119.5 248t180.5 230.5t186 117.5l34 2q81 0 113 -47q2 -4 2 -11q0 -9 -6 -15.5t-14 -6.5q-12 0 -17 8q-4 4 -12 4q-30 0 -86 -53q-64 -59 -130.5 -145t-115.5 -169q63 35 137 41h9q63 0 118.5 -50t63.5 -113l2 -31q0 -125 -81.5 -248 t-195.5 -156q-55 -18 -116 -18q-62 0 -109 23q-110 52 -110 219zM131 176q0 -98 74 -98h8q50 4 103 71t85.5 155t32.5 157q0 94 -63 94h-2q-45 -2 -91 -27t-67 -61q-25 -48 -52.5 -136.5t-27.5 -154.5z" />
<glyph unicode="7" horiz-adv-x="684" d="M-20 96l2 10q19 73 105 228t196 301q81 108 163 190l-96 -4q-71 0 -153 10q-41 6 -76.5 59.5t-40.5 98.5v2q0 9 6 15t14 6q9 0 13 -4q42 -34 194 -37h45q176 0 322 24h4q14 0 20 -12q5 -18 23 -48t22 -44l2 -6q0 -14 -14 -21q-12 -4 -24 -4q-49 -22 -146 -126.5 t-194 -241.5q-93 -133 -153 -245t-85 -231q-3 -20 -27 -20h-2q-34 0 -77 34t-43 66z" />
<glyph unicode="8" horiz-adv-x="595" d="M-74 211q0 43 13 90q28 107 92.5 178.5t150.5 71.5h4q-98 33 -98 166q0 56 16 102q66 191 275 191h29q91 -4 139.5 -56t48.5 -129l-2 -24q-10 -97 -59.5 -168.5t-143.5 -102.5q49 -19 83 -66.5t34 -117.5q0 -27 -2 -39q-20 -140 -102.5 -223.5t-235.5 -83.5h-21 q-115 4 -168 63.5t-53 147.5zM74 195q0 -61 27 -95t69 -34q54 0 105 58.5t73 166.5q6 27 6 61q0 105 -75 129h-13q-112 0 -172 -174q-20 -61 -20 -112zM223 688q0 -103 90 -108q47 9 83.5 59.5t52.5 118.5q12 46 12 82q0 52 -21 80t-55 28q-43 0 -85.5 -47t-63.5 -131 q-13 -54 -13 -82z" />
<glyph unicode="9" horiz-adv-x="632" d="M-35 63q0 7 6.5 14t14.5 7q11 0 16 -8q6 -6 14 -6q29 0 84.5 43t87.5 75q104 104 181 246q-61 -37 -150 -37h-14q-87 6 -127.5 62.5t-40.5 142.5q0 127 65 232q84 134 197 165q63 17 92 17q25 0 55 -6q172 -26 172 -244q0 -144 -69 -315q-22 -53 -70 -126.5 t-110.5 -147.5t-138 -125.5t-138.5 -51.5h-4q-86 0 -119 51q-4 8 -4 12zM172 571q0 -112 102 -112h2q86 3 136 69q63 152 63 279l-4 55q-4 32 -27 53t-49 21h-4q-46 -4 -100.5 -70.5t-87.5 -152.5q-31 -84 -31 -142z" />
<glyph unicode=":" horiz-adv-x="360" />
<glyph unicode=";" horiz-adv-x="329" />
<glyph unicode="&#x3c;" horiz-adv-x="503" />
<glyph unicode="=" horiz-adv-x="493" />
<glyph unicode="&#x3e;" horiz-adv-x="512" />
<glyph unicode="?" horiz-adv-x="573" />
<glyph unicode="@" horiz-adv-x="1081" />
<glyph unicode="A" horiz-adv-x="1538" d="M0 453v2q15 82 51.5 133t108.5 65q61 9 84 9q65 0 139.5 -12t177.5 -41.5t156.5 -47t179.5 -59.5q107 123 288.5 356.5t237.5 302.5q13 19 45 19q38 0 74.5 -21.5t36.5 -44.5l-2 -10q-48 -99 -110.5 -309t-110.5 -420q16 -2 47 -2q81 0 117 39q8 8 16 8q5 0 12.5 -7 t7.5 -14q0 -4 -4 -12q-43 -58 -86.5 -86.5t-101.5 -28.5l-29 2q-47 -222 -47 -317l2 -37q0 -8 -5.5 -14t-14.5 -6h-10q-144 0 -148 149q0 89 37 256q-107 23 -215 57q-374 -462 -565 -462q-72 0 -117 39.5t-45 99.5q0 31 8.5 57.5t28.5 26.5q15 0 18 -14q9 -31 25.5 -40.5 t54.5 -9.5q150 0 465 340q-350 99 -535 99q-144 0 -239 -64q-4 -4 -13 -4t-14.5 7t-5.5 16zM1012 463q86 -28 162 -49q54 220 143 481q-158 -237 -305 -432z" />
<glyph unicode="B" horiz-adv-x="1157" d="M0 881q0 57 29 80q251 219 655 219h25q60 0 118 -7.5t119.5 -27.5t107 -51t74.5 -81.5t29 -115.5v-2q-1 -127 -85 -237.5t-206 -153.5q73 -28 108.5 -78.5t35.5 -114.5q0 -69 -43 -157q-59 -114 -193 -184t-270 -70h-17q-72 2 -164 43t-151 114q-6 9 -6 21q0 11 5.5 21 t12.5 10q6 0 9 -5q124 -98 268 -98q110 0 204.5 62.5t153.5 187.5q35 69 35 117q0 38 -23 62t-52.5 32.5t-66 20.5t-53.5 26q-92 -292 -92 -379q0 -16 -18 -20h-17q-106 0 -118 53q-2 8 -2 29q0 102 77 346.5t129 365.5q9 23 50 23q40 0 81.5 -20t41.5 -44l-3 -8l-102 -266 l21 -2q51 0 109.5 39.5t105.5 101.5q38 47 63 105t25 108q0 55 -35.5 91.5t-112.5 43.5l-69 4q-100 0 -205.5 -23.5t-203 -68.5t-168 -121.5t-89.5 -171.5q-3 -18 -18 -18l-11 2q-36 9 -67 72t-31 125z" />
<glyph unicode="C" horiz-adv-x="960" d="M0 285q0 87 23.5 187.5t66 199.5t105 190.5t136 161.5t164.5 112.5t185 43.5q133 0 201.5 -68.5t68.5 -183.5q0 -129 -77 -287.5t-164 -216.5q-27 -18 -68 -18q-53 0 -104.5 26.5t-55.5 59.5q0 20 21 20q54 5 135 95t141 206t60 188q0 70 -72 70q-3 0 -45 -6 q-94 -20 -190 -118.5t-165 -229.5t-113 -276t-44 -257q0 -93 38 -140t124 -48q81 0 170 43t167 113t139.5 141t110.5 143q7 10 19 10q20 -3 20 -20l-2 -8q-41 -102 -102 -191.5t-140 -164.5t-181 -118.5t-212 -43.5h-4q-97 0 -176 40.5t-129.5 129.5t-50.5 215z" />
<glyph unicode="D" horiz-adv-x="1292" d="M0 881q0 56 27 80q254 219 657 219h25q79 -1 149 -14.5t134 -42.5t112.5 -73t81.5 -108.5t43 -144.5q6 -47 6 -92q0 -140 -49.5 -283t-134.5 -259t-211.5 -189.5t-268.5 -73.5q-92 0 -199.5 44.5t-160.5 112.5q-8 11 -8 23t5 20.5t11 8.5h4q111 -50 156 -60v14 q0 112 104 460.5t162 482.5q8 22 51 22q40 0 80.5 -19.5t40.5 -43.5l-2 -9q-74 -190 -181.5 -508t-107.5 -407v-12q92 1 178 51t150 131.5t112.5 181.5t73.5 204.5t25 197.5q0 109 -36.5 181.5t-110.5 86.5q-64 12 -138 12q-186 0 -358 -76q-118 -53 -196.5 -130.5 t-98.5 -168.5q-3 -18 -21 -18q-10 0 -16 4q-35 15 -62.5 76t-27.5 119z" />
<glyph unicode="E" horiz-adv-x="997" d="M0 176q0 97 61 191q108 171 293 235q-78 22 -115.5 72t-37.5 117q0 87 57.5 177.5t144.5 141.5q122 72 252 72q167 0 242 -117q39 -62 39 -143q0 -101 -56 -187t-147 -110l-24 -4q-47 0 -77 44t-30 95q0 7 6.5 13.5t14.5 6.5h16q47 0 105.5 74.5t58.5 130.5q0 20 -8 31 q-26 33 -70 33q-55 0 -124 -39.5t-107 -79.5q-103 -107 -103 -191q0 -44 33 -77q12 -11 44 -32.5t46 -37.5q28 -31 33 -82q0 -8 -5 -15t-12 -8q-73 -15 -159.5 -63t-156 -121.5t-77.5 -144.5l-2 -27q0 -32 10.5 -56t23.5 -35.5t30 -18.5t26 -8t15 -1h14q83 0 191 68.5 t186 169t78 182.5v8q0 8 5.5 14.5t14.5 6.5l8 -2q64 -22 98.5 -52.5t34.5 -76.5q0 -39 -22 -84q-75 -156 -226.5 -251t-322.5 -95q-134 0 -216.5 79.5t-82.5 196.5z" />
<glyph unicode="F" horiz-adv-x="866" d="M0 1022q0 16 3.5 49t4.5 47q0 8 6 13.5t13 5.5q10 0 16 -9q27 -36 156 -36q121 0 404.5 41t340.5 41q99 0 157 -48t58 -118q0 -66 -53 -125q-6 -6 -16 -6q-8 0 -14.5 5.5t-6.5 12.5l2 8q10 30 10 45q0 40 -41 56q-29 10 -88 10q-51 0 -114 -7t-161 -22.5t-116 -17.5 q37 0 77 -21t40 -43l-2 -8q-87 -241 -111 -313l113 16q11 0 20 -2t15.5 -7t11.5 -9.5t9 -13.5t6.5 -14.5t5 -17.5t3.5 -17.5t2.5 -19.5t2.5 -18l2 -8q0 -15 -17 -18q-79 -19 -227 -31q-133 -399 -133 -502q0 -8 -6 -14t-15 -6h-20q-101 0 -113 53l-2 20q0 96 101 435h-45 q-87 0 -119 12q-37 13 -61.5 42t-24.5 66q0 21 4 31q4 14 18 14q9 0 17 -8q21 -24 110 -24q58 0 146 10q104 321 137 391q5 16 31 21q-27 -4 -108.5 -20.5t-143 -25t-113.5 -8.5q-48 0 -92 9q-46 10 -63 35.5t-17 68.5z" />
<glyph unicode="G" horiz-adv-x="1116" d="M0 272q0 98 27 204.5t73.5 206.5t114 191t145 158.5t169.5 107.5t184 40h2q117 0 196 -47q48 -30 73.5 -77t25.5 -100q0 -77 -54 -143q-40 -49 -88 -49q-50 0 -90 57q-4 8 -4 13q0 4 4 12q62 88 62 158q0 67 -76 67q-22 0 -49 -6q-95 -20 -191 -118.5t-165 -228.5 t-112.5 -274t-43.5 -256q0 -50 8 -86q11 -49 45 -80.5t82 -31.5h14q54 7 105.5 36.5t89 68.5t68.5 83.5t48 80t23 58.5q-74 0 -117 15q-33 14 -53 44t-20 66q0 17 6 35q4 15 18 15q10 0 17 -11q18 -30 116 -30q36 0 86 4.5t81.5 9t82 12.5t53.5 8h9q53 0 53 -67 q0 -27 -9 -51.5t-18 -26.5q-36 -11 -123 -16q-39 -99 -87.5 -268.5t-59.5 -262.5q-3 -16 -29 -16q-29 0 -65 16.5t-49 38.5q-5 15 -5 27q0 65 35 184q-61 -62 -134.5 -101t-123.5 -42l-26 -2q-107 0 -194.5 68t-111.5 159q-18 71 -18 147z" />
<glyph unicode="H" horiz-adv-x="1083" d="M0 645q0 24 8 51q16 59 59.5 139t101 155.5t128.5 130t133 59.5l39 2q44 0 86.5 -6t78.5 -25t36 -47l-2 -14q-6 -24 -99 -280t-104 -316h264q60 195 129.5 396t95.5 265q9 25 54 25q41 0 80.5 -19.5t39.5 -44.5l-2 -8q-79 -201 -215 -614q31 -2 82 -2h4q29 0 29 -35 q0 -32 -23 -63.5t-55 -31.5h-2q-35 3 -76 3q-118 -365 -118 -445q0 -8 -6 -14t-13 -6h-20q-103 0 -115 53l-2 16q0 82 94 398l-268 2q-119 -384 -119 -449q0 -8 -5.5 -14t-14.5 -6h-21q-100 0 -112 53l-3 16q0 80 95 400l-86 -2q-31 0 -31 32q0 29 22.5 62t45.5 33h88 q35 113 78.5 236t88 241.5t46.5 124.5l-13 2q-43 0 -119 -100t-133 -212.5t-57 -152.5q0 -12 6 -15q17 -3 17 -18q0 -14 -15 -20q-53 -17 -90 -17q-90 0 -90 82z" />
<glyph unicode="I" horiz-adv-x="557" d="M0 645q0 27 6 51q16 59 59.5 139t101 155.5t128.5 130t133 59.5l37 2q46 0 89 -7.5t78.5 -31t35.5 -58.5q0 -12 -11 -38q-27 -65 -110.5 -304t-147.5 -444q-95 -298 -98 -379q0 -8 -5.5 -14t-12.5 -6h-21q-103 0 -115 53l-2 18q0 78 91 385q60 203 137.5 432.5 t111.5 311.5l-12 2q-41 0 -112 -94t-124.5 -198t-62.5 -146l-2 -29q0 -15 4 -17q7 -1 13 -7.5t6 -12.5q0 -12 -15 -18q-64 -19 -92 -19q-32 0 -53 12q-35 21 -35 72z" />
<glyph unicode="J" horiz-adv-x="684" d="M0 645q0 27 6 51q19 71 62 152t102.5 157t138.5 125.5t158 49.5h2q215 0 215 -248q0 -148 -76 -387q-20 -65 -44.5 -132.5t-63.5 -154.5t-79.5 -155.5t-93 -124.5t-104.5 -74q-16 -4 -30 -4q-38 0 -70 14q-78 30 -90 113v12q0 53 39.5 144t103.5 188q135 190 270 268 q62 236 62 352q0 54 -12 84q-13 23 -35 23q-12 0 -27 -6q-49 -22 -106.5 -101t-98 -164.5t-53.5 -142.5q-6 -21 -6 -45q0 -21 8 -21q17 -3 17 -18q0 -14 -15 -20q-64 -19 -92 -19q-29 0 -53 12q-35 21 -35 72zM129 -2q0 -15 6 -21l6 -2q34 0 101.5 136t113 256t62.5 174 q-54 -66 -171.5 -270t-117.5 -273z" />
<glyph unicode="K" horiz-adv-x="1009" d="M0 645q0 27 6 51q19 70 70.5 160t116.5 164q131 152 237 160l37 2q46 0 88.5 -7.5t77.5 -30.5t35 -57q0 -14 -11 -40q-101 -275 -180 -510q188 174 366 365.5t199 271.5q3 14 19 14q10 0 14 -4q82 -64 82 -146q0 -34 -24 -71q-61 -94 -457 -408q21 -107 65 -231.5 t93 -210.5q55 -107 94 -107q14 0 22 10q6 9 15 9q11 0 20.5 -12t9.5 -29q0 -13 -6 -25q-24 -54 -151 -57h-2q-39 0 -75 23.5t-65 68t-52 91.5t-44 112.5t-34 110.5t-29 105q-1 6 -2 9.5t-2.5 8.5t-2.5 9l-122 -108q-105 -334 -107 -416q0 -8 -5.5 -14t-12.5 -6h-21 q-103 0 -115 53l-2 18q0 78 91 385q60 203 137.5 432.5t111.5 311.5l-10 2q-41 0 -112 -94t-125 -197.5t-64 -146.5l-2 -27q0 -16 6 -19q17 -3 17 -20q0 -12 -15 -18q-64 -19 -92 -19q-29 0 -53 12q-35 21 -35 72z" />
<glyph unicode="L" horiz-adv-x="688" d="M0 12q0 40 23.5 78.5t62.5 63.5q46 24 88 24q34 0 72 -12q60 146 155 464t156 470l-10 2q-41 0 -112 -94t-125 -197.5t-64 -146.5l-2 -27q0 -16 6 -19q16 -3 16 -20q0 -12 -14 -18q-64 -19 -92 -19q-30 0 -54 12q-34 20 -34 72q0 27 6 51q19 71 70 161t116 163 q131 152 238 160l37 2q33 0 65.5 -4.5t64.5 -15t52 -30.5t20 -47q0 -15 -10 -38q-49 -121 -155.5 -455.5t-180.5 -487.5q23 -12 99 -54t116 -62t102 -40t109 -20q29 0 66 11l6 2q8 0 14 -7t6 -16l-4 -10q-43 -60 -78 -92t-77 -33h-17q-50 0 -110 22.5t-101 47t-109 69 t-98 62.5q-69 -78 -151 -84l-27 -2q-69 0 -105 33t-36 81zM84 25q0 -20 29 -23h2q29 0 67 47q-28 8 -49 8q-22 0 -35 -8q-14 -7 -14 -24z" />
<glyph unicode="M" horiz-adv-x="1605" d="M0 645q0 27 6 51q19 70 71.5 160t117.5 164q127 152 235 160l37 2q46 0 89 -7.5t78.5 -31t35.5 -58.5q0 -12 -11 -38q-30 -73 -139.5 -389.5t-163.5 -501.5q514 1022 678 1024h4q64 0 100 -29t36 -82q0 -27 -17 -76q-127 -323 -248 -708l-39 -125q512 1018 676 1020 q59 0 100.5 -26.5t41.5 -80.5q0 -13 -3.5 -30t-7 -27.5t-11 -31.5t-9.5 -26q-264 -721 -264 -933q0 -69 24 -88q8 -5 8 -17q0 -8 -5.5 -14t-14.5 -6q-33 0 -50.5 1t-42 4.5t-37 12t-25.5 23t-19 38t-6 56.5q0 35 5.5 79.5t17.5 100t23 103.5t32 118t34 114t38.5 121 t36 109.5t36.5 108.5t31 90q-56 -64 -137 -187t-141.5 -224.5t-166.5 -282.5q-17 -29 -97.5 -167.5t-121.5 -205.5q-9 -12 -20 -12q-26 0 -43 1.5t-38.5 6t-34.5 16t-17 29.5q-3 9 -3 27q0 50 24 149t66 228.5t78 233.5t82.5 232.5t55.5 155.5q-42 -50 -90 -117.5 t-121 -187.5t-104 -172t-128 -217q-149 -257 -223 -375q-5 -10 -18 -10h-21q-98 0 -110 53l-3 20q0 91 91 383q62 207 138 435.5t109 308.5l-10 2q-41 0 -112 -94t-124.5 -198t-62.5 -146q-4 -24 -4 -31q0 -12 6 -15q17 -3 17 -18q0 -14 -15 -20q-64 -19 -92 -19 q-29 0 -53 12q-35 21 -35 72z" />
<glyph unicode="N" horiz-adv-x="1079" d="M0 645q0 27 6 51q19 70 70.5 160t116.5 164q131 152 235 160l39 2q32 0 63 -4t62.5 -13.5t51.5 -28.5t22 -46v-11q0 -17 -9 -32q-30 -72 -138.5 -387t-162.5 -500q19 31 89.5 158.5t148.5 264t163.5 276.5t160 230t114.5 91q59 0 100.5 -26.5t41.5 -80.5q0 -13 -3.5 -30 t-7 -27.5t-11 -31.5t-9.5 -26q-264 -721 -264 -933q0 -69 24 -88q8 -5 8 -17q0 -8 -5.5 -14t-14.5 -6q-33 0 -50.5 1t-42 4.5t-37 12t-25.5 23t-19 38t-6 56.5q0 35 5.5 79.5t17.5 100t23 103.5t32 118t34 114t38.5 121t36 109.5t36.5 108.5t31 90q-56 -64 -137 -187 t-141.5 -224.5t-166.5 -282.5q-132 -229 -219 -373q-9 -12 -20 -12q-26 0 -43 1.5t-39 6t-35 16t-17 29.5l-2 18q0 78 91 385q60 203 137.5 432.5t111.5 311.5l-12 2q-41 0 -112 -94t-124.5 -198t-62.5 -146l-2 -29q0 -15 4 -17q7 -1 13 -7.5t6 -12.5q0 -12 -15 -18 q-64 -19 -92 -19q-32 0 -53 12q-35 21 -35 72z" />
<glyph unicode="O" horiz-adv-x="833" d="M0 487v13q1 74 26.5 165t73 181.5t108 166t140 122.5t160.5 47q154 0 226.5 -101.5t72.5 -271.5q0 -144 -45 -305q-45 -159 -115 -292.5t-168.5 -222.5t-202.5 -89q-200 0 -200 239q0 89 24 180q-100 23 -100 168zM213 78q0 -86 45 -94h8q43 0 94 66.5t93.5 161.5 t70.5 170t41 120q72 252 72 399q0 182 -113 182h-16q-46 -5 -90 -44.5t-76 -95.5t-58 -122t-40.5 -123.5t-18.5 -99.5q18 12 43 12q16 0 34.5 -4.5t37.5 -11t27 -8.5q14 -4 14 -21q0 -8 -6 -14q-46 -46 -101 -189q21 -14 21 -28l-2 -6q-3 -5 -8 -7t-14.5 -3t-10.5 -1 q-47 -137 -47 -239z" />
<glyph unicode="P" horiz-adv-x="1144" d="M0 881q0 57 29 80q254 219 657 219h25q210 -2 339.5 -85.5t129.5 -234.5q0 -94 -58 -213q-59 -122 -163.5 -206.5t-221.5 -94.5h-18q-53 0 -101 39q-118 -369 -118 -465q0 -8 -6 -14t-15 -6h-20q-101 0 -113 53q-2 6 -2 22q0 79 76 355q56 194 125.5 405t95.5 271 q8 22 51 22q40 0 80.5 -19.5t40.5 -43.5l-2 -9q-62 -162 -170 -497l27 -4q55 0 122.5 52t127.5 134q46 64 78 138.5t32 138.5q0 141 -166 163q-40 6 -86 6q-99 0 -202.5 -24.5t-196.5 -70.5t-161 -122.5t-87 -169.5q-3 -18 -20 -18l-17 4q-35 15 -63.5 76t-28.5 119z" />
<glyph unicode="Q" horiz-adv-x="845" d="M0 487v13q2 74 27.5 165t73 181.5t107.5 166t139.5 122.5t160.5 47q154 0 226.5 -101.5t72.5 -271.5q0 -144 -45 -305q-70 -250 -193 -416q57 -65 91 -102t80 -75t71 -38q10 0 18 8q6 6 15 6t15.5 -5.5t6.5 -14.5l-4 -10q-58 -84 -135 -84h-2q-23 0 -46.5 10t-42 23.5 t-42 38t-38.5 43t-40 50t-39 48.5q-99 -86 -201 -86q-200 0 -200 239q0 89 24 180q-100 23 -100 168zM213 78q0 -86 45 -94h8q51 0 117 96q-43 29 -86 29q-6 0 -13.5 6t-7.5 12l3 6q19 38 52 62t70 24q28 0 52 -12q75 157 112 295q72 252 72 399q0 182 -113 182h-16 q-57 -6 -109.5 -63.5t-87.5 -137t-57 -154.5t-29 -130q18 12 43 12q16 0 35 -4.5t39 -11t27 -8.5q12 -3 12 -19q0 -10 -6 -16q-48 -48 -99 -189q19 -13 19 -28l-2 -6q-3 -5 -8 -7t-14.5 -3t-10.5 -1q-47 -137 -47 -239z" />
<glyph unicode="R" horiz-adv-x="1153" d="M0 883q0 52 29 78q254 219 657 219h25q209 -2 339 -85.5t130 -234.5q0 -94 -58 -213q-59 -121 -162 -205t-219 -96q42 -162 127 -256q82 -92 172 -92l25 2q7 0 12.5 -6t5.5 -14q0 -13 -12 -19q-89 -54 -162 -63h-20q-40 0 -75.5 17.5t-60.5 42.5t-47.5 67t-36.5 77.5 t-27.5 88t-20 83.5t-15.5 78q-106 -346 -106 -432q0 -8 -6 -14t-15 -6h-20q-101 0 -113 53q-2 6 -2 22q0 79 76 355q53 189 123 400.5t98 275.5q8 22 53 22q40 0 78.5 -18.5t38.5 -44.5l-2 -13q-61 -155 -168 -493q18 -6 39 -6q98 0 196 115.5t138 262.5q12 43 12 87 q0 142 -164 163q-46 6 -94 6q-205 0 -385 -94q-101 -53 -168.5 -128t-87.5 -165q-3 -18 -21 -18q-10 0 -16 4q-40 17 -72 100q-18 49 -18 97z" />
<glyph unicode="S" horiz-adv-x="786" d="M0 109q0 58 35.5 129t83.5 98q4 2 10 2q8 0 14.5 -6t6.5 -13q0 -2 -5 -12q-65 -95 -65 -178v-16q3 -44 33.5 -77.5t70.5 -33.5q9 0 29 4q55 14 107.5 63t93.5 117q27 41 53.5 101.5t26.5 99.5l-2 19q0 4 -15 4q-24 0 -118 -21t-115 -22h-4q-70 0 -125.5 49.5t-55.5 124.5 q0 55 29.5 137t82 168.5t116.5 162.5t142 124.5t149 48.5q67 0 116.5 -21.5t77 -60.5t40.5 -85t13 -102q0 -86 -30 -184q-52 -158 -179 -158q-14 0 -30 2.5t-26.5 5t-28.5 7t-25 6.5q-17 3 -17 20q0 7 5.5 13t13.5 6q39 3 70.5 51.5t48.5 101.5q30 98 30 197l-2 45 q-8 68 -34 68h-7q-49 -12 -135 -121.5t-154.5 -249t-68.5 -223.5l4 -31q6 -20 39 -20q31 0 108.5 22.5t94.5 22.5h2q35 0 63 -13.5t43.5 -33t26 -39t13.5 -32.5l3 -14q0 -52 -21.5 -114.5t-61 -123.5t-89.5 -111.5t-113 -81.5t-126 -31q-79 0 -152 54t-88 130z" />
<glyph unicode="T" horiz-adv-x="622" d="M0 985q0 34 6 69.5t12 43.5q60 82 246 82h37q122 -2 387 -52q248 -45 334 -45q82 0 108 29q6 6 15 6q12 0 18 -14q13 -29 13 -60q0 -21 -7 -45q-17 -67 -57 -86q-28 -14 -80 -14q-61 0 -248 39q-93 17 -110 23v-9l-2 -20q-69 -159 -181.5 -526t-113.5 -488q0 -8 -6 -14 t-15 -6h-10q-44 0 -80 13t-43 40l-2 22q0 113 112.5 497.5t166.5 506.5q0 4 6 10q-136 12 -193 12q-71 0 -118 -8q-126 -16 -140 -69q-3 -17 -18 -17q-8 0 -17 6q-20 14 -20 74z" />
<glyph unicode="U" horiz-adv-x="1103" d="M0 647q0 71 58.5 176.5t136.5 196.5q76 91 134.5 125t137.5 37q46 0 89 -7.5t78.5 -31t35.5 -58.5q0 -12 -11 -38q-38 -96 -141 -394q-1 -2 -26 -75t-49 -146t-51.5 -162t-44.5 -161t-17 -105q0 -24 10 -24q34 0 177.5 220.5t276.5 453t154 288.5q37 103 80 215 q10 23 51 23q40 0 81.5 -20t41.5 -44l-2 -8q-86 -199 -211 -599.5t-125 -563.5v-27q0 -7 -6 -12.5t-14 -5.5h-13q-62 0 -95.5 30.5t-33.5 92.5q0 145 146 606q-9 -16 -53 -98t-78.5 -146t-89 -154t-97 -151.5t-87.5 -108t-76 -51.5q-12 -2 -35 -2q-72 0 -108 53t-36 140 q0 25 7 69q22 157 123.5 457.5t166.5 462.5l-10 2q-41 0 -112 -94t-124.5 -198t-62.5 -146q-4 -24 -4 -31q0 -12 6 -15q17 -3 17 -18q0 -18 -34 -28.5t-71 -10.5q-31 0 -55 12q-35 21 -35 74z" />
<glyph unicode="V" horiz-adv-x="1107" d="M0 645q0 27 6 51q16 59 59.5 139t101 155.5t129.5 130t134 59.5l49 2q199 0 199 -181q0 -37 -6 -67q-113 -699 -113 -885q0 -69 14 -69q11 0 39.5 35t70.5 106.5t88.5 165t99 225.5t96.5 272q57 178 57 269q0 58 -25 77q-6 6 -6 13q0 9 7 15.5t16 6.5q69 -6 102 -56 t33 -132q0 -109 -49 -254q-56 -175 -162 -368.5t-209 -321t-158 -133.5l-26 -2q-27 0 -54.5 4.5t-57.5 15.5t-50.5 32.5t-24.5 51.5q-8 47 -8 121q0 98 16.5 240t35.5 249t47.5 262.5t37.5 206.5v4q0 17 -18 17q-16 0 -27 -8q-45 -26 -111.5 -124.5t-113.5 -199t-47 -137.5 q0 -15 6 -15q17 -3 17 -20q0 -12 -15 -18q-64 -19 -92 -19q-29 0 -53 12q-35 21 -35 72z" />
<glyph unicode="W" horiz-adv-x="1605" d="M0 647q0 25 6 49q16 59 59 138.5t99.5 155.5t127 130.5t132.5 59.5q18 2 53 2q79 0 124.5 -26.5t53.5 -70.5l2 -14q0 -54 -48.5 -262.5t-97 -436t-48.5 -329.5v-23q3 -55 29 -55q30 0 80 66t69 106q30 58 63.5 134.5t71 175.5t61 163t64 178t49.5 138q25 99 47 168 q3 23 36 36t75 13q37 0 63.5 -9t26.5 -24v-6q-79 -224 -117.5 -475t-38.5 -445q0 -225 39 -225h2q49 0 153 209t189.5 472.5t85.5 397.5q0 70 -26 90q-8 5 -8 17q0 17 18 20h4q40 0 68.5 -20.5t44 -55.5t22 -74t6.5 -85q0 -55 -12 -121q-35 -173 -132 -386.5t-206 -364 t-176 -158.5l-37 -2q-85 0 -138 42.5t-62 108.5q-15 114 -15 219q0 116 10 201q-82 -218 -165 -363q-104 -185 -170 -202q-27 -6 -58 -6q-59 0 -107 22t-61 60q-18 45 -18 137q0 129 39 329.5t87.5 393.5t55.5 239v6q0 17 -12 17q-7 0 -23 -8q-66 -39 -167 -220.5 t-101 -240.5q0 -15 6 -15q17 -3 17 -20q0 -12 -13 -18q-64 -19 -92 -19q-29 0 -53 12q-37 22 -37 74z" />
<glyph unicode="X" horiz-adv-x="1038" d="M0 -20l2 8q7 14 21 14l8 -2q19 0 146 153t244.5 305.5t117.5 155.5l-23 265q-14 191 -18 217q-4 4 -13 4q-13 0 -34 -15q-72 -49 -161.5 -191t-107.5 -230q-4 -24 -4 -31q0 -12 6 -15q17 -3 17 -18q0 -14 -15 -20q-64 -19 -92 -19q-29 0 -53 12q-35 21 -35 72q0 27 6 51 q19 70 71.5 160t117.5 164q127 152 235 160l37 2q55 0 105 -13.5t89 -50t40 -90.5q0 -55 10 -182q127 164 212.5 249t143.5 85h2q78 0 146 -78q6 -6 6 -12q0 -8 -6 -14.5t-13 -6.5l-10 2q-4 2 -14 2q-51 0 -176 -112q-123 -114 -277 -304q15 -163 45 -383q44 -312 62 -315 t18 -20q0 -13 -12 -19q-48 -20 -105 -20q-90 0 -108 61q-43 141 -74 469l-115 -156q-166 -230 -224 -294q-71 -79 -109 -80h-5q-44 0 -74 27t-30 53z" />
<glyph unicode="Y" horiz-adv-x="1103" d="M0 645q0 27 6 51q19 70 70.5 160t116.5 164q131 152 237 160q20 2 55 2q86 0 122 -31.5t36 -91.5q0 -64 -41 -182q-125 -383 -125 -474v-16q3 -16 6 -16l13 4q101 37 243 250q87 129 170.5 290t110.5 242q9 23 53 23t86.5 -18.5t42.5 -43.5l-2 -8q-10 -33 -33.5 -112.5 t-41.5 -140.5t-49 -152.5t-58 -163.5t-66 -159t-77 -152.5t-87 -131t-98.5 -107t-109.5 -67.5t-123 -26q-76 0 -119 34.5t-43 96.5q0 31 12 69q3 15 19 15q8 0 14 -5t6 -14q1 -31 32.5 -47t70.5 -16l30 4q51 12 104 64.5t99 132.5t86.5 165.5t76.5 184t58.5 165.5t40.5 130 q-26 -53 -53 -104t-69 -125t-85 -135t-90.5 -117.5t-96 -89.5t-91.5 -34h-8q-74 0 -108 42t-34 110q0 37 4 57q9 62 32 141.5t38 121.5t47 128q64 172 64 209l-2 13q-6 6 -15 6q-14 0 -35 -15q-71 -48 -160 -190t-108 -231l-2 -27q0 -16 6 -19q17 -3 17 -20q0 -12 -15 -18 q-64 -19 -92 -19q-29 0 -53 12q-35 21 -35 72z" />
<glyph unicode="Z" horiz-adv-x="1071" d="M0 -4q0 15 16 18q40 12 78 21q-16 29 -16 59q0 25 12 49q39 78 155.5 202.5t231 227.5t281.5 249.5t233 207.5q-18 -3 -76 -13t-92 -15.5t-85.5 -12.5t-96 -10.5t-82.5 -3.5q-98 0 -147 24q-41 17 -41 86q0 13 1.5 27.5t3.5 29.5t3 21q3 19 20 19q13 0 19 -13 q8 -22 162 -22q140 0 430 33h8q48 0 94.5 -66.5t46.5 -138.5q0 -51 -29 -90q-41 -53 -126.5 -125.5t-184 -148.5t-202 -159.5t-204.5 -185t-167 -198.5q162 34 356 34q170 0 236 -39q16 -8 36 -50.5t23 -69.5v-4q0 -23 -18 -23q-7 0 -11 2q-46 25 -209 25q-133 0 -301.5 -15 t-246.5 -28l-13 -2q-35 0 -60 28t-36 62z" />
<glyph unicode="[" horiz-adv-x="428" />
<glyph unicode="\" horiz-adv-x="929" />
<glyph unicode="]" horiz-adv-x="425" />
<glyph unicode="^" horiz-adv-x="315" />
<glyph unicode="_" horiz-adv-x="643" />
<glyph unicode="`" horiz-adv-x="239" />
<glyph unicode="a" horiz-adv-x="708" d="M-45 229q0 104 44 216.5t127 194t179 81.5h2q84 0 121 -57l14 36q14 23 54 23q37 0 73.5 -18.5t36.5 -42.5l-2 -9q-43 -105 -102 -288t-62 -277q0 -47 13 -47q24 1 59.5 42.5t73 108.5t67 124.5t56.5 117.5q5 12 18 12l10 -2q11 -4 11 -16q0 -1 -3 -10q-24 -52 -39 -82.5 t-44 -88t-52 -93t-51.5 -75t-54.5 -59t-49 -20.5h-25q-101 0 -127 49q-16 27 -16 86q0 16 4 66q-93 -162 -193 -162h-4q-70 1 -104.5 53t-34.5 137zM119 209q0 -55 31 -55q28 1 72 59.5t75.5 117t44.5 91.5q29 78 29 127t-31 57l-12 2q-43 0 -93.5 -74.5t-83 -169 t-32.5 -155.5z" />
<glyph unicode="b" horiz-adv-x="665" d="M-86 78q0 77 68 305q51 173 115 358t93 246q9 23 52 23q40 0 80 -19t40 -43l-2 -8q-69 -182 -108 -293q62 76 129 76h6q49 0 81.5 -32t45.5 -74.5t16 -96.5v-18q0 -85 -26 -178q122 22 160 108q6 14 18 14q6 0 10 -2q10 -3 10 -18q0 -6 -2 -10q-31 -67 -84.5 -96.5 t-126.5 -38.5q-34 -94 -89.5 -161.5t-123.5 -86.5q-24 -4 -36 -4q-49 0 -79 33t-30 81q0 63 49 115q42 40 142 51q40 114 40 217l-4 47q-7 33 -22 33h-4q-41 -3 -102.5 -104.5t-79.5 -163.5q-77 -214 -80 -320q0 -8 -6 -14t-15 -6h-20q-101 0 -113 55zM176 156q0 -27 19 -27 q22 0 49 37q36 41 61 98q-73 -12 -98 -41q-31 -31 -31 -67z" />
<glyph unicode="c" horiz-adv-x="585" d="M-43 238q0 93 39 196q28 73 69 135t105 108t135 46q17 0 45 -4q58 -11 85.5 -48.5t27.5 -86.5q0 -64 -37 -107q-25 -28 -55 -28q-21 0 -39 12q-8 5 -8 18q0 6 2 8q49 86 49 117q0 16 -13 19h-6q-45 0 -115 -93t-100 -204q-16 -50 -16 -113q0 -60 19.5 -105t60.5 -59 q20 -4 31 -4q21 0 45 6q146 53 305 383q5 12 16 12l10 -2q11 -7 11 -18q0 -4 -2 -8q-165 -348 -330 -406q-35 -12 -74 -12h-22q-123 4 -180.5 69t-57.5 169z" />
<glyph unicode="d" horiz-adv-x="712" d="M-45 229q0 104 44 216.5t127 194t179 81.5h2q82 0 117 -49q50 146 119 315q11 23 55 23q43 0 85 -18.5t42 -39.5v-6q-2 -7 -47.5 -129t-88.5 -241.5t-84.5 -260t-49.5 -213.5l-2 -45q0 -16 4 -16q18 0 45 27q85 88 211 366q5 12 18 12l10 -2q11 -6 11 -16q0 -6 -2 -10 q-129 -286 -222 -379q-39 -39 -69 -39h-29q-94 0 -117 49q-14 32 -14 86q0 39 6 82q-103 -178 -209 -178h-2q-70 1 -104.5 53t-34.5 137zM117 209q0 -55 30 -55q41 1 108.5 103.5t90.5 162.5q27 68 27 127q0 61 -41 61h-2q-45 0 -96.5 -74.5t-84 -169t-32.5 -155.5z" />
<glyph unicode="e" horiz-adv-x="583" d="M-43 238q0 93 39 196q20 53 48.5 101t66.5 92t88 70t104 26h8q62 -2 102 -32.5t40 -86.5v-4q-2 -70 -44.5 -147t-104.5 -127t-116 -50q-33 0 -57 21q-8 -50 -8 -78q0 -66 21.5 -114t68.5 -58l23 -2q21 0 45 6q145 54 303 383q6 12 16 12q4 0 12 -4q11 -4 11 -16 q0 -4 -2 -8q-167 -350 -332 -408q-34 -10 -72 -10h-22q-123 4 -180.5 69t-57.5 169zM150 356q11 -8 28 -8q61 0 133 95t72 151q0 15 -10 22q-8 5 -17 5q-30 0 -68.5 -38.5t-64.5 -76.5q-48 -72 -73 -150z" />
<glyph unicode="f" horiz-adv-x="419" d="M-162 -260q0 86 46.5 280t88.5 334q64 217 126.5 396.5t95.5 238.5q14 23 55 23q40 0 80.5 -21t40.5 -43l-2 -6q-26 -56 -125 -344.5t-109 -347.5l39 -2q55 0 100 18q87 41 146 170q5 13 18 13q8 -1 11 -2t6.5 -5t3.5 -12l-2 -8q-68 -152 -170 -193q-48 -22 -121 -22 q53 -56 53 -150q0 -41 -16 -127q-10 -44 -28 -92t-46 -100.5t-68 -86.5t-84 -34q-41 0 -76.5 17t-54.5 51q-8 13 -8 51v4zM-2 -322q0 -14 2 -18q47 13 93 96t69 185q18 88 18 120q0 94 -63 136q-12 -51 -47 -185.5t-53.5 -217t-18.5 -116.5z" />
<glyph unicode="g" horiz-adv-x="686" d="M-104 -244q0 11 4 39q18 89 93 129.5t220 48.5q13 36 59 197q-91 -131 -174 -131h-4q-70 1 -104.5 53t-34.5 137q0 104 44 216.5t127 194t179 81.5h2q75 0 115 -49q4 26 14 33q18 18 56 18q37 0 71.5 -19.5t34.5 -41.5l-2 -7q-36 -103 -80 -252q-97 -310 -137 -419 q79 43 145 137q52 76 162 313q4 12 19 12q4 0 8 -2q12 -4 12 -18q0 -4 -2 -8q-108 -236 -166 -320q-85 -123 -199 -168q-25 -63 -49.5 -110t-62 -97.5t-89 -78t-112.5 -27.5h-14q-66 4 -100.5 42t-34.5 97zM-59 -231q0 -28 15 -45t44 -17q55 0 106.5 63.5t90.5 159.5 q-112 -5 -175 -36t-79 -101q-2 -8 -2 -24zM117 209q0 -53 28 -53h2q28 0 72.5 57.5t77 117t47.5 95.5q27 90 27 125q0 57 -41 57q-45 -1 -96.5 -75.5t-84 -168.5t-32.5 -155z" />
<glyph unicode="h" horiz-adv-x="708" d="M-86 76q0 105 105 430t169 481q9 23 54 23q40 0 80 -19t40 -43l-2 -8q-21 -50 -81 -217.5t-113 -327.5q60 94 100 144q80 97 117 129q63 54 117 55q40 0 67 -23t27 -63l-2 -25q-6 -31 -66.5 -247.5t-60.5 -286.5q0 -37 12 -37q41 3 84 78.5t148 314.5q6 12 18 12 q8 0 14.5 -5.5t6.5 -12.5l-3 -10q-113 -257 -161.5 -336t-104.5 -82l-57 -2q-61 0 -93 25t-32 94q2 67 32.5 186.5t60.5 214t30 100.5q0 15 -8 15q-6 0 -21 -15q-51 -47 -113.5 -131.5t-97.5 -142t-63 -106.5q-47 -164 -47 -218q0 -14 -9 -17t-32 -3q-56 0 -83.5 15.5 t-31.5 60.5z" />
<glyph unicode="i" horiz-adv-x="358" d="M-61 139q0 53 18 148q41 189 131 411q12 25 51 25q38 0 75.5 -19t37.5 -42l-2 -9q-160 -450 -160 -577q0 -35 16 -35q24 1 59 42.5t72 108t66 125t55 117.5q5 12 19 12l10 -2q10 -3 10 -16q0 -6 -2 -10q-27 -60 -46.5 -100.5t-54.5 -106t-62.5 -106t-60.5 -72.5t-60 -33 h-27q-101 0 -127 49q-18 30 -18 90zM160 850q0 23 13 69t24 70q8 25 47 25q36 0 72 -20.5t36 -43.5q0 -10 -4 -14q-6 -10 -27 -61t-26 -62q-6 -14 -35 -14q-33 0 -66.5 16t-33.5 35z" />
<glyph unicode="j" horiz-adv-x="335" d="M-453 -244q0 34 15 72q54 139 303 145q47 127 110 364.5t105 358.5q9 27 55 27q41 0 78 -17.5t37 -41.5l-2 -9q-35 -100 -104 -326.5t-113 -344.5q80 44 143 137q62 92 162 313q6 12 18 12q3 0 11 -4q10 -3 10 -16q0 -4 -2 -8q-102 -230 -164 -320q-84 -122 -199 -168 q-25 -63 -49.5 -110t-62 -97.5t-89 -78t-112.5 -27.5h-14q-64 3 -100 42t-36 97zM-408 -223v-13q0 -27 16 -42t44 -15q54 0 105.5 63.5t90.5 159.5q-236 -6 -256 -153zM152 850q0 23 12.5 68t23.5 69q8 25 48 25q36 0 72 -20.5t36 -43.5q0 -10 -4 -14q-1 -2 -55 -121 q-6 -14 -35 -14q-33 0 -65.5 16t-32.5 35z" />
<glyph unicode="k" horiz-adv-x="735" d="M-86 76q0 106 107.5 436t168.5 475q9 23 52 23q40 0 80 -19t40 -43l-2 -8q-83 -205 -188 -528q64 98 155.5 199t149.5 112l23 2q39 0 81 -14.5t42 -34.5q0 -8 -5 -14.5t-14 -6.5l-14 2q-36 0 -134.5 -77.5t-160.5 -137.5l29 2q36 0 55 -8q25 -12 38.5 -76t17 -132.5 t12.5 -125.5t26 -59q92 17 262 391q6 12 17 12q9 0 15.5 -6t6.5 -14q0 -4 -2 -8q-99 -222 -171.5 -320t-139.5 -98q-39 0 -82.5 11.5t-56.5 37.5q-16 27 -26 78.5t-17 119.5t-11 91q-6 33 -26 33q-13 0 -27 -11q-12 -11 -51.5 -59t-44.5 -57q-46 -155 -49 -224 q0 -20 -29 -20h-10q-58 0 -85.5 15.5t-31.5 60.5z" />
<glyph unicode="l" horiz-adv-x="358" d="M-55 137q0 112 57.5 316.5t106 333t79.5 200.5q16 25 56 25t80.5 -21t40.5 -43l-3 -6q-239 -632 -262 -840l-2 -41q0 -20 4 -20h4q26 0 78 70q60 84 174 323q5 12 19 12q6 0 10 -2q10 -7 10 -16q0 -6 -2 -10q-107 -234 -180 -330q-60 -86 -111 -88h-28q-94 0 -117 49 q-14 32 -14 88z" />
<glyph unicode="m" horiz-adv-x="1077" d="M-90 57v2q0 81 66.5 309.5t105.5 329.5q9 25 51 25q39 0 78 -18.5t39 -42.5l-2 -9q-23 -56 -90 -260q57 86 102 146q87 112 158 161q36 23 76 23t67 -23t27 -63l-2 -25q-9 -49 -62 -231q76 112 111 158q96 119 158 161q36 23 75 23q40 0 67.5 -23t27.5 -63l-2 -25 q-6 -31 -66.5 -247.5t-60.5 -286.5q0 -37 12 -37q21 2 38 17.5t40 54.5q35 57 153 321q6 12 17 12q9 0 15.5 -5.5t6.5 -14.5q0 -4 -2 -8q-113 -256 -156 -328q-30 -49 -55 -68.5t-55 -21.5l-57 -2q-61 0 -93 25t-32 94v18q3 60 33 175t59.5 208.5t29.5 99.5q0 15 -8 15 q-5 0 -20 -15q-48 -45 -92 -104q-98 -127 -183 -276q-47 -180 -47 -211v-4q0 -23 -22 -23h-23q-58 0 -84 25t-26 77l2 29q5 48 23.5 124.5t37 136.5t41.5 132t27 86l2 15q0 8 -6 8q-8 0 -23 -12q-15 -13 -37.5 -38t-40 -46.5t-18.5 -22.5q-88 -115 -180 -276 q-45 -150 -48 -218q0 -20 -22 -20h-14q-115 0 -117 57z" />
<glyph unicode="n" horiz-adv-x="704" d="M-88 57q0 71 63.5 297t108.5 344q9 25 51 25q39 0 78 -18.5t39 -42.5l-2 -9q-7 -17 -28 -77.5t-40.5 -118t-21.5 -62.5q80 116 102 144q61 81 119 132.5t115 51.5q40 0 67 -23t27 -63l-2 -25q-6 -31 -66.5 -247.5t-60.5 -286.5q0 -37 12 -37q38 3 81 76t151 317 q6 12 16 12q9 0 15.5 -5.5t6.5 -14.5q0 -4 -2 -8q-113 -257 -161.5 -336t-104.5 -82l-57 -2q-63 0 -94 24t-31 95q2 66 31.5 186t59.5 217t30 103q0 10 -6 10q-9 0 -21 -12q-106 -95 -274 -381q-44 -160 -47 -220q0 -20 -27 -20h-10q-115 0 -117 57z" />
<glyph unicode="o" horiz-adv-x="618" d="M-41 236q0 107 42.5 218.5t121 190t168.5 78.5q24 0 51 -6q127 -32 127 -213q0 -79 -27 -170q54 0 102.5 26.5t73.5 75.5q5 10 17 10q4 0 12 -4q8 -3 8 -14q0 -8 -2 -12q-30 -57 -88 -90t-121 -33h-16q-18 -52 -44.5 -101t-62.5 -93.5t-83 -71.5t-97 -27q-92 0 -137 65.5 t-45 170.5zM106 156q0 -87 44 -93h6q28 0 58 30.5t55.5 79t40.5 84t28 69.5q-45 34 -45 96q0 44 23 82.5t53 46.5q-10 47 -45 47h-11q-46 -8 -96 -87.5t-80.5 -180t-30.5 -174.5z" />
<glyph unicode="p" horiz-adv-x="684" d="M-170 -297q0 100 72 379q114 459 190 616q16 25 51 25q39 0 80 -18q39 -17 39 -41l-8 -25q66 84 141 84q101 0 131 -111q15 -46 15 -96q-3 -110 -43 -217q130 18 188 137q7 10 16 10q21 0 21 -26q-78 -152 -244 -164q-100 -213 -262 -213q-86 0 -86 86q0 63 55 115 q58 43 146 43q47 121 47 233q0 88 -35 88q-32 0 -82 -71q-60 -83 -104 -193q-170 -555 -170 -694q0 -25 -17 -25l-41 -2q-100 0 -100 80zM178 147q0 -28 23 -28q17 0 43 26q25 28 43 58q21 27 24 43q-102 -6 -129 -76q-4 -8 -4 -23z" />
<glyph unicode="q" horiz-adv-x="727" d="M-45 229q0 104 44 216.5t127 194t179 81.5h2q81 0 117 -53q10 32 18 39q22 16 52 16q39 0 76.5 -21.5t37.5 -42.5l-2 -8q-14 -33 -70 -208.5t-92 -299.5q98 23 163.5 97.5t117.5 193.5q6 12 20 12l9 -2q12 -8 12 -18l-2 -8q-53 -118 -119 -196t-160 -109q45 -34 45 -109 q0 -46 -12 -92q-9 -43 -24 -87t-39.5 -93t-61.5 -81t-80 -34h-8q-38 0 -74 19t-49 53l-2 20q0 120 88 455q-85 -125 -170 -125h-4q-70 1 -104.5 53t-34.5 137zM117 209q0 -53 28 -53h2q28 0 80 65q70 93 115 203q29 73 29 127q0 57 -41 57q-45 -1 -96.5 -75.5t-84 -168.5 t-32.5 -155zM334 -338q37 13 69.5 64.5t49 99.5t26.5 94q13 54 13 82q0 74 -62 92q-88 -317 -96 -432z" />
<glyph unicode="r" horiz-adv-x="550" d="M-2 426q0 4 2 8q58 129 98 225q-26 20 -26 58q0 32 20 86q8 22 49 22q21 0 36.5 -6.5t15.5 -17.5l-3 -6q-15 -56 -30 -90q28 1 76 9.5t69 8.5q39 0 72 -26.5t39 -65.5l2 -15q0 -29 -39 -141q-98 -273 -98 -377l4 -35q5 -24 22 -24q18 0 41.5 22.5t34.5 40.5 q52 76 168 332q6 12 16 12q7 0 15 -4t8 -16q0 -4 -2 -8q-118 -263 -170 -338q-32 -47 -56.5 -63.5t-54.5 -16.5h-20q-120 0 -146 49q-16 32 -16 82q0 54 18 135t35.5 135.5t50 146t35.5 101.5q-9 -1 -43.5 -6.5t-54.5 -5.5q-23 0 -33 4q-36 -92 -96 -223q-4 -12 -17 -12 q-6 0 -10 2q-12 4 -12 18z" />
<glyph unicode="s" horiz-adv-x="481" d="M-90 166q0 74 47 139q15 21 43 21q35 0 70.5 -25t35.5 -47q0 -9 -8 -14q-24 -20 -42.5 -64.5t-18.5 -77.5q0 -23 12 -32q5 -5 12 -5q18 0 37 23q37 47 37 145q0 50 -12 154.5t-12 148.5q0 29 2 43l-74 -159q-7 -10 -19 -10q-6 0 -10 2q-10 5 -10 14q0 10 2 14 q124 287 162 287h151q9 0 15 -5t6 -13q0 -11 -4 -15q-49 -73 -49 -164q0 -43 14 -129.5t14 -130.5q0 -31 -6 -61q-15 -71 -41 -113q49 52 103 133q59 92 114 211q5 10 19 10q6 0 10 -2q10 -7 10 -18l-2 -8q-58 -122 -121 -219q-50 -76 -96 -127q-41 -45 -88 -58.5 t-107 -13.5h-18q-86 0 -132 47.5t-46 118.5z" />
<glyph unicode="t" horiz-adv-x="360" d="M-53 141q0 202 159 631q-41 2 -112 2q-9 1 -15 8t-6 13q0 8 6 14t15 6l127 -2q35 91 72 174q8 25 51 25q41 0 84 -20.5t43 -43.5l-2 -6q-39 -89 -56 -135l103 -2q9 0 14.5 -6.5t5.5 -14.5t-6 -14t-16 -6q-35 2 -117 2q-131 -392 -174 -573q-5 -14 -14 -62t-9 -72 q0 -18 9 -18q22 0 75 68q73 100 178 325q5 12 19 12q6 0 10 -2q10 -7 10 -18q0 -4 -2 -8q-98 -224 -188 -342q-19 -22 -30 -34t-32.5 -26.5t-39.5 -15.5h-31q-94 0 -115 49q-16 37 -16 92z" />
<glyph unicode="u" horiz-adv-x="708" d="M-63 133q0 62 20 154q21 98 64.5 225.5t70.5 185.5q12 25 51 25q38 0 75.5 -19t37.5 -42l-2 -9q-43 -105 -102 -288t-62 -277q0 -47 12 -47q44 0 115 115q67 106 145 319q42 132 82 223q9 25 52 25q39 0 75.5 -18.5t36.5 -42.5l-2 -9q-43 -105 -102 -288t-62 -277 q0 -47 15 -47q35 3 102 104q65 101 152 289q5 12 18 12q6 0 10 -2q11 -7 11 -16q0 -6 -2 -10q-96 -206 -160 -303q-77 -112 -129 -115h-27q-101 0 -127 49q-16 27 -16 84q0 37 6 80q-15 -34 -47 -82q-79 -128 -142 -131h-26q-101 0 -127 49q-16 27 -16 84z" />
<glyph unicode="v" horiz-adv-x="577" d="M-14 260q0 193 67 436q6 27 51 27q39 0 76 -18.5t37 -40.5l-2 -11q-34 -88 -52 -203.5t-18 -220.5q0 -155 29 -172q69 67 166.5 269t97.5 323v19q0 24 -6 39l-2 8q0 7 6.5 12.5t14.5 5.5q25 0 63 -23.5t39 -47.5q2 -12 2 -23q0 -81 -63.5 -223.5t-136 -256t-109.5 -143.5 q-16 -16 -33 -16q-112 2 -140 9q-43 11 -55 42q-32 73 -32 209z" />
<glyph unicode="w" horiz-adv-x="987" d="M-14 264q3 119 17.5 212t51.5 218q6 27 51 27q37 0 75 -19t38 -43l-2 -8q-34 -88 -52 -203.5t-18 -220.5q0 -82 7 -119.5t26 -52.5q30 11 94 119.5t103 226.5q13 39 25.5 84t23 85t14.5 53q5 26 54 26q37 0 73.5 -17.5t36.5 -39.5l-2 -10q-65 -176 -65 -367 q3 -77 9.5 -111.5t22.5 -56.5q61 45 138 232t98 331v17q0 53 -10 78l-2 8q0 9 6.5 14.5t15.5 5.5q47 -8 82.5 -28t36.5 -43q2 -12 2 -23q0 -58 -37 -177t-106.5 -252t-143.5 -198q-12 -12 -47 -12h-4q-9 0 -35.5 0.5t-35.5 1t-29.5 2t-29.5 4.5t-22.5 8.5t-21 13.5t-12.5 19 q-35 87 -35 211v33q-17 -41 -48 -102t-77 -126t-74 -65h-22q-25 0 -42 1t-38.5 5.5t-36 15t-21.5 27.5q-32 77 -32 215z" />
<glyph unicode="x" horiz-adv-x="665" d="M-59 18q0 6 6 15q6 7 86.5 104t126.5 154q-23 180 -29 332l-92 -205q-6 -12 -16 -12q-9 0 -16 5.5t-7 14.5q0 4 2 8q7 15 48 107t59 129q10 22 46.5 37.5t73.5 15.5q58 0 58 -39l12 -221q129 156 215 252q7 10 31 10q41 0 41 -20q0 -7 -8 -15l-269 -321q0 -3 2 -30.5 t5 -52.5t7 -61.5t10.5 -66t15 -57t20.5 -43.5t26 -17h4q51 0 105 82q59 84 162 311q6 12 18 12q8 0 14.5 -5.5t6.5 -12.5q0 -4 -3 -10q-100 -223 -163 -320q-69 -98 -144 -98h-20q-118 0 -148 47q-26 42 -49 160l-166 -199q-7 -10 -30 -10q-41 0 -41 20z" />
<glyph unicode="y" horiz-adv-x="690" d="M-98 -244l2 33q14 93 90 133.5t223 50.5q26 70 64 209q-98 -179 -172 -182h-27q-101 0 -127 49q-16 27 -16 84q0 110 54.5 290t100.5 275q12 25 51 25q38 0 75.5 -20t37.5 -44l-2 -8q-36 -90 -102 -295t-66 -282q0 -33 16 -33q47 4 115 115q79 131 146 321q28 102 71 219 q9 27 56 27q39 0 75.5 -17.5t36.5 -41.5l-2 -9q-25 -66 -80 -252q-97 -310 -137 -419q80 44 143 137q58 83 162 313q6 12 19 12q8 0 14 -5.5t6 -12.5q0 -6 -2 -10q-102 -230 -164 -320q-84 -122 -198 -168q-24 -63 -49 -110t-63 -97.5t-89.5 -78t-112.5 -27.5h-14 q-65 4 -100 41.5t-35 97.5zM-53 -233q0 -60 59 -60q55 0 106.5 63.5t90.5 159.5q-123 -7 -178.5 -36.5t-71.5 -86.5q-6 -21 -6 -40z" />
<glyph unicode="z" horiz-adv-x="628" d="M-154 -244l2 23q20 187 318 194q29 93 29 121q0 61 -68 74q-18 3 -18 20t18 21q61 10 114 82.5t81 167.5q26 97 26 133q0 88 -92 88h-6q-27 0 -55 -18.5t-48 -42t-43.5 -64t-34.5 -64t-29 -62.5q-3 -8 -5 -11q-6 -12 -19 -12q-8 0 -14 5.5t-6 12.5q0 6 2 10 q60 132 93 180q71 103 161 107h35q207 0 207 -162q0 -55 -25 -135q-25 -82 -75.5 -144t-125.5 -87q90 -38 90 -140q0 -32 -8 -59q63 41 121 125q62 92 162 313q6 12 18 12q8 0 14.5 -5.5t6.5 -12.5l-2 -10q-102 -230 -164 -320q-73 -105 -172 -155q-14 -45 -32 -86 t-47.5 -86t-64.5 -78t-84 -55t-104 -23q-68 0 -112 38.5t-44 104.5zM-106 -221v-12q0 -58 55 -58q18 0 45 10q39 19 85 81.5t71 129.5q-123 -5 -183.5 -40t-72.5 -111z" />
<glyph unicode="{" horiz-adv-x="354" />
<glyph unicode="|" horiz-adv-x="294" />
<glyph unicode="}" horiz-adv-x="321" />
<glyph unicode="~" horiz-adv-x="477" />
<glyph unicode="&#xa1;" horiz-adv-x="452" />
<glyph unicode="&#xa2;" horiz-adv-x="581" />
<glyph unicode="&#xa3;" horiz-adv-x="731" />
<glyph unicode="&#xa5;" horiz-adv-x="710" />
<glyph unicode="&#xa9;" horiz-adv-x="960" />
<glyph unicode="&#xae;" horiz-adv-x="960" />
<glyph unicode="&#xbf;" horiz-adv-x="710" />
<glyph unicode="&#xc0;" horiz-adv-x="1525" d="M0 451v2q15 82 51.5 133t108.5 63q36 8 88 8q85 0 206.5 -26.5t207.5 -53.5t235 -77q107 123 288.5 356.5t237.5 302.5q13 19 45 19q25 0 54 -11q57 -26 57 -55q0 -6 -2 -10q-48 -99 -110.5 -309t-110.5 -420q16 -2 47 -2q81 0 117 39q6 6 16 6q8 0 12 -2q8 -8 8 -17 q0 -8 -4 -12q-43 -58 -86.5 -86.5t-101.5 -28.5l-29 2q-47 -222 -47 -317q0 -25 2 -33v-6q0 -18 -20 -18h-10q-142 0 -146 141v16q0 74 35 246q-117 28 -215 59q-370 -462 -565 -462q-102 0 -142 67q-20 33 -20 72q0 35 16 72q6 12 21 12q12 0 18 -15q10 -29 26.5 -39 t53.5 -10h2q148 0 463 340q-350 99 -535 99q-50 0 -96 -9q-87 -16 -141 -55q-4 -4 -12 -4q-9 0 -16 7t-7 16zM1012 461q110 -35 162 -49q57 228 143 481q-178 -267 -305 -432zM1495 1421q0 20 18 41t37 21q7 0 19 -8q12 -10 47 -48.5t66 -74.5l32 -35q4 -4 4 -10 q0 -12 -11.5 -23.5t-20.5 -11.5l-7 2q-7 5 -85.5 62.5t-92.5 68.5q-6 6 -6 16z" />
<glyph unicode="&#xc1;" horiz-adv-x="1533" d="M0 449v4q29 173 160 196q36 8 88 8q84 0 205 -26.5t207 -53.5t235 -77q107 123 288.5 356.5t237.5 302.5q16 19 47 19q23 0 52 -11q57 -26 57 -55q0 -6 -2 -10q-48 -98 -109.5 -307t-109.5 -422q16 -2 45 -2q80 0 119 39q6 6 16 6l10 -2q8 -8 8 -17q0 -8 -4 -12 q-41 -58 -84.5 -86.5t-103.5 -28.5l-29 2q-45 -209 -45 -315q0 -27 2 -35v-4q0 -8 -6 -14t-14 -6h-10q-144 0 -148 141v8q0 101 35 254q-127 31 -215 59q-370 -462 -565 -462q-102 0 -142 67q-18 30 -18 70q0 37 16 74q3 12 19 12q12 0 18 -15q10 -29 26.5 -39t53.5 -10h2 q152 0 463 340q-350 99 -535 99q-49 0 -96 -9q-89 -17 -141 -55q-4 -4 -13 -4q-20 0 -20 21zM1012 461q101 -33 159 -49q58 232 146 481q-184 -272 -305 -432zM1409 1329q0 8 6 14q1 0 26 18t53.5 38t58 39.5t40.5 25.5l15 4q18 0 32.5 -21t14.5 -42q0 -19 -13 -25 q-63 -30 -202 -86l-4 -2q-10 0 -18.5 12t-8.5 25z" />
<glyph unicode="&#xc2;" horiz-adv-x="1531" d="M0 449v4q29 173 160 196q36 8 88 8q84 0 205 -26.5t207 -53.5t235 -77q107 123 288.5 356.5t237.5 302.5q13 19 45 19q25 0 54 -11q57 -26 57 -55q0 -6 -2 -10q-48 -98 -109.5 -307t-109.5 -422q16 -2 45 -2q81 0 117 39q9 6 18 6l10 -2q8 -8 8 -17q0 -8 -4 -12 q-43 -58 -86.5 -86.5t-101.5 -28.5l-29 2q-45 -209 -45 -315q0 -27 2 -35v-4q0 -8 -6 -14t-14 -6h-10q-144 0 -148 141v16q0 74 35 246q-127 31 -215 59q-370 -462 -565 -462q-99 0 -142 67q-18 30 -18 70q0 37 16 74q3 12 19 12q12 0 18 -15q10 -29 26.5 -39t53.5 -10h2 q148 0 463 340q-350 99 -535 99q-49 0 -96 -9q-89 -17 -141 -55q-4 -4 -13 -4q-20 0 -20 21zM1012 461q101 -33 159 -49q58 232 146 481q-184 -272 -305 -432zM1438 1309q0 6 6 12q11 10 65.5 66t73.5 73q5 8 25 8q24 0 24 -14q9 -118 25 -158l2 -8q0 -8 -12 -8h-9 q-3 0 -9 0.5t-8.5 1t-6.5 2t-6 4t-4 6.5q-23 48 -27 86q-80 -71 -117 -90h-4q-6 0 -12 6.5t-6 12.5z" />
<glyph unicode="&#xc3;" horiz-adv-x="1527" d="M0 451v2q15 82 51.5 133t108.5 63q36 8 88 8q85 0 206.5 -26.5t207.5 -53.5t235 -77q107 123 288.5 356.5t237.5 302.5q13 19 45 19q25 0 54 -11q57 -26 57 -55l-2 -10q-48 -99 -110.5 -309t-110.5 -420q16 -2 47 -2q81 0 117 39q6 6 16 6q8 0 10 -2q10 -7 10 -17 q0 -4 -4 -12q-43 -58 -86.5 -86.5t-101.5 -28.5l-29 2q-47 -222 -47 -317q0 -25 2 -33v-4q0 -8 -5.5 -14t-14.5 -6h-10q-80 0 -112.5 38t-35.5 103v8q0 93 37 254q-117 28 -215 59q-374 -462 -565 -462q-102 0 -142 67q-20 33 -20 72q0 35 16 72q6 12 21 12q12 0 18 -15 q9 -29 26 -39t54 -10h2q148 0 463 340q-350 99 -535 99q-50 0 -96 -9q-86 -16 -143 -55q-4 -4 -13 -4t-14.5 7t-5.5 16zM1012 461q86 -28 162 -49q57 228 143 481q-158 -237 -305 -432zM1395 1350q0 10 8 17t18 7q9 0 17 -8q17 -29 41 -29q9 0 20 4t19 8.5t23.5 13.5 t23.5 13q31 17 51 17q42 0 74 -66l2 -8q0 -9 -7 -16t-16 -7q-10 0 -18 11q-13 16 -29 16q-5 0 -11 -1.5t-14 -5.5t-14.5 -7.5t-18 -10t-18.5 -10.5q-36 -18 -63 -18q-53 0 -86 69z" />
<glyph unicode="&#xc4;" horiz-adv-x="1531" d="M0 449v4q29 173 160 196q36 8 88 8q84 0 205 -26.5t207 -53.5t235 -77q107 123 288.5 356.5t237.5 302.5q16 19 47 19q23 0 52 -11q57 -26 57 -55q0 -6 -2 -10q-48 -98 -109.5 -307t-109.5 -422q16 -2 45 -2q80 0 119 39q6 6 16 6l10 -2q8 -8 8 -17q0 -8 -4 -12 q-41 -58 -84.5 -86.5t-103.5 -28.5l-29 2q-45 -209 -45 -315q0 -27 2 -35v-4q0 -8 -5.5 -14t-14.5 -6h-10q-144 0 -148 141v8q0 101 35 254q-127 31 -215 59q-370 -462 -565 -462q-99 0 -142 67q-18 30 -18 70q0 37 16 74q3 12 19 12q12 0 18 -15q10 -29 26.5 -39t53.5 -10 h2q152 0 463 340q-350 99 -535 99q-49 0 -96 -9q-89 -17 -141 -55q-4 -4 -13 -4q-20 0 -20 21zM1012 461q101 -33 159 -49q58 232 146 481q-184 -272 -305 -432zM1380 1339q0 15 2 21q12 38 29 56t53 18h11q53 -3 53 -52q0 -15 -6 -30q-21 -64 -72 -64h-4q-66 0 -66 51z M1602 1331q0 15 2 21q12 38 29 55.5t53 17.5h10q53 -3 53 -51q0 -16 -6 -31q-22 -63 -72 -63h-4q-65 0 -65 51z" />
<glyph unicode="&#xc5;" horiz-adv-x="1531" d="M0 451v2q15 82 51.5 133t108.5 63q36 8 88 8q85 0 206.5 -26.5t207.5 -53.5t235 -77q107 123 288.5 356.5t237.5 302.5q13 19 45 19q25 0 54 -11q57 -26 57 -55q0 -6 -2 -10q-48 -99 -110.5 -309t-110.5 -420q16 -2 47 -2q81 0 117 39q6 6 16 6q8 0 10 -2q10 -7 10 -17 q0 -4 -4 -12q-43 -58 -86.5 -86.5t-101.5 -28.5l-29 2q-47 -222 -47 -317q0 -25 2 -33v-4q0 -8 -5.5 -14t-14.5 -6h-10q-80 0 -112.5 38t-35.5 103v8q0 93 37 254q-117 28 -215 59q-374 -462 -565 -462q-102 0 -142 67q-20 33 -20 72q0 35 16 72q6 12 21 12q12 0 18 -15 q9 -29 26 -39t54 -10h2q148 0 463 340q-350 99 -535 99q-50 0 -96 -9q-86 -16 -143 -55q-4 -4 -13 -4t-14.5 7t-5.5 16zM1012 461q86 -28 162 -49q57 228 143 481q-158 -237 -305 -432zM1497 1307q0 26 16 63q36 66 91 66q17 0 32 -6q39 -16 39 -68q0 -37 -14 -62 q-35 -69 -90 -69q-14 0 -29 6q-45 19 -45 70zM1554 1294q0 -18 11 -18q18 0 41 47q16 31 16 53q0 17 -8 17q-19 0 -45 -50q-15 -30 -15 -49z" />
<glyph unicode="&#xc6;" horiz-adv-x="2224" d="M0 449v4q29 173 160 196q36 8 88 8q84 0 205 -26.5t207 -53.5t235 -77q107 123 288.5 356.5t237.5 302.5q13 19 45 19q25 0 54 -11q57 -26 57 -55q0 -6 -2 -10l-19 -41q28 25 64 47q122 72 252 72q77 0 140 -29.5t99 -87.5q39 -62 39 -145q0 -100 -55.5 -185.5 t-146.5 -109.5l-25 -5q-44 0 -74 45t-30 95q0 8 6.5 14t13.5 6h16q47 0 105.5 74.5t58.5 130.5q0 20 -8 31q-26 33 -69 33q-55 0 -124.5 -39.5t-109.5 -79.5q-102 -106 -102 -191q0 -47 34 -78q14 -14 46 -34t45 -35q27 -30 32 -82q0 -20 -18 -23q-52 -11 -116.5 -43 t-124 -75.5t-102 -100.5t-48.5 -110l-2 -27q0 -40 13 -66.5t33.5 -36.5t33 -13t22.5 -3h16q83 0 191 68.5t186 169t78 182.5v8q0 8 6 14.5t13 6.5l8 -2q66 -22 100.5 -52.5t34.5 -78.5q0 -31 -23 -82q-75 -156 -226.5 -251t-321.5 -95q-145 0 -228 90l-2 -39l2 -33 q0 -18 -20 -18h-11q-78 0 -110.5 38t-34.5 103v16q0 74 35 246q-117 28 -215 59q-370 -462 -565 -462q-102 0 -142 67q-18 30 -18 70q0 37 16 74q3 12 19 12q12 0 18 -15q10 -29 26.5 -39t53.5 -10h2q148 0 463 340q-350 99 -535 99q-49 0 -96 -9q-87 -16 -141 -55 q-4 -4 -13 -4q-20 0 -20 21zM1010 461q116 -37 161 -49q58 232 146 481q-189 -279 -307 -432zM1382 489q78 72 187 111q-94 26 -131 98q-41 -144 -56 -209z" />
<glyph unicode="&#xc7;" horiz-adv-x="954" d="M0 285q0 100 32.5 221t94.5 239t142 216t185.5 159t215.5 62q156 0 227 -84q53 -64 53 -172q0 -82 -26 -164q-33 -106 -94.5 -202.5t-118.5 -135.5q-27 -18 -68 -18q-51 0 -100 25t-60 56v7q0 16 19 20q54 4 135 93.5t141 205.5t60 188q0 20 -7 37q-11 33 -63 33 q-3 0 -45 -6q-95 -20 -191 -118t-165 -228.5t-112.5 -274.5t-43.5 -256q0 -50 8 -86q21 -100 141 -106h13q80 0 169.5 43.5t167.5 113.5t140 140.5t111 142.5q7 10 16 10l8 -2q12 -3 12 -16l-2 -10q-41 -102 -101.5 -191.5t-139.5 -164.5t-180.5 -118.5t-211.5 -43.5h-4 q-29 0 -41 2l-51 -66q21 6 45 6q53 0 74 -26q21 -24 21 -66q0 -27 -9 -51q-20 -52 -66 -79.5t-93 -27.5q-50 0 -74 27q-10 13 -10 33q0 33 18 47l4 2q10 0 10 -8v-2q0 -1 -2 -7t-2 -10q0 -13 19 -18q16 -4 26 -4q43 0 84 31t45 71v4q0 31 -39 31q-33 0 -65 -20h-4 q-11 0 -27 20t-16 33v4q6 17 61 82q-103 24 -170 97.5t-90 197.5q-6 38 -6 82z" />
<glyph unicode="&#xc8;" horiz-adv-x="1001" d="M0 174q0 100 59 191q112 173 293 235q-151 43 -151 186q0 88 57.5 179.5t144.5 142.5q122 72 252 72q76 0 139.5 -29.5t100.5 -87.5q39 -62 39 -145q0 -100 -56 -185.5t-147 -109.5l-24 -5q-44 0 -74.5 45t-30.5 95q0 7 6.5 13.5t14.5 6.5h16q47 0 105.5 73.5t58.5 129.5 q0 20 -10 33q-23 33 -70 33q-54 0 -122.5 -39.5t-108.5 -79.5q-103 -107 -103 -191q0 -46 35 -78q14 -14 45 -34t45 -35q28 -31 33 -82q0 -8 -6 -15t-13 -8q-53 -11 -117.5 -43t-124 -75.5t-101.5 -100.5t-48 -110l-2 -31q0 -38 13.5 -64t34 -35.5t33 -12.5t22.5 -3h16 q83 0 190.5 68t185 168t77.5 182v8q0 9 6 16t14 7l8 -2q66 -22 100.5 -52.5t34.5 -78.5q0 -33 -22 -82q-75 -156 -227.5 -251t-323.5 -95q-133 0 -215 79.5t-82 196.5zM674 1446q0 20 17.5 40.5t37.5 20.5q7 0 19 -8q18 -15 79 -84t66 -76q4 -4 4 -10q0 -11 -11.5 -22 t-21.5 -11l-6 2q-14 9 -87 63t-91 69q-6 6 -6 16z" />
<glyph unicode="&#xc9;" horiz-adv-x="985" d="M0 174q0 97 61 191q109 172 291 235q-151 43 -151 186q0 88 57.5 179.5t144.5 142.5q122 72 252 72q77 0 141 -29.5t99 -87.5q39 -62 39 -145q0 -100 -56 -185.5t-147 -109.5l-24 -5q-44 0 -74.5 45t-30.5 95q0 7 6.5 13.5t14.5 6.5h16q47 0 105.5 74.5t58.5 130.5 q0 20 -8 31q-26 33 -70 33q-55 0 -123.5 -39t-109.5 -80q-103 -107 -103 -191q0 -46 35 -78q14 -14 45.5 -34t44.5 -35q28 -31 33 -82q0 -20 -19 -23q-52 -11 -116.5 -43t-124 -75.5t-102 -100.5t-48.5 -110l-2 -27q0 -32 9.5 -56t22 -35.5t29.5 -18.5t25.5 -8t16.5 -1h16 q83 0 191 68.5t186 169t78 182.5v8q0 8 5.5 14.5t12.5 6.5l8 -2q66 -22 100.5 -52.5t34.5 -78.5q0 -37 -22 -82q-74 -156 -226.5 -251t-322.5 -95q-134 0 -216.5 79.5t-82.5 196.5zM598 1333q0 9 6 15q5 5 80.5 57.5t95.5 62.5l15 5q18 0 32.5 -21.5t14.5 -42.5 q0 -19 -13 -25q-51 -26 -200 -86l-4 -2q-10 0 -18.5 12t-8.5 25z" />
<glyph unicode="&#xca;" horiz-adv-x="995" d="M0 174q0 97 61 191q108 171 293 235q-78 22 -115.5 71.5t-37.5 114.5q0 87 57.5 179t144.5 143q122 72 252 72q167 0 242 -117q39 -62 39 -143q0 -101 -56 -187t-147 -110l-24 -5q-46 0 -75.5 44.5t-29.5 95.5q0 7 6.5 13.5t14.5 6.5h14q47 0 105.5 74.5t58.5 130.5 q0 20 -8 31q-26 33 -70 33q-55 0 -124 -39.5t-107 -79.5q-103 -107 -103 -191q0 -45 33 -78q14 -14 45.5 -34t44.5 -35q28 -31 33 -82v-4q0 -6 -5.5 -11.5t-11.5 -7.5q-53 -11 -118 -43t-124.5 -75.5t-102 -100.5t-48.5 -110l-2 -27q0 -32 9.5 -56t22 -35.5t29.5 -18.5 t25.5 -8t16.5 -1h16q84 0 192 69t185.5 169t77.5 182v8q0 8 6.5 14.5t13.5 6.5l8 -2q65 -22 99 -52t34 -77q0 -39 -22 -84q-75 -156 -226.5 -251t-322.5 -95q-134 0 -216.5 79.5t-82.5 196.5zM602 1327q0 6 6 12q15 14 69.5 71.5t67.5 70.5q9 6 25 6q27 0 27 -14 q10 -121 24 -158l2 -8q0 -9 -12 -9h-8q-2 0 -7.5 0.5t-7.5 1l-6 1.5t-6 2.5t-4.5 4t-3.5 5.5q-20 42 -29 86q-78 -69 -114 -90h-4q-6 0 -12.5 6t-6.5 12z" />
<glyph unicode="&#xcb;" horiz-adv-x="995" d="M0 174q0 100 59 191q108 171 293 235q-78 22 -115.5 71.5t-37.5 114.5q0 88 58 179.5t146 142.5q122 72 252 72q76 0 139.5 -29.5t100.5 -87.5q39 -62 39 -143q0 -101 -56 -187t-147 -110l-24 -5q-46 0 -75.5 44.5t-29.5 95.5q0 7 6.5 13.5t14.5 6.5h16q47 0 104.5 74.5 t57.5 130.5q0 20 -8 31q-23 33 -70 33q-54 0 -123.5 -40t-107.5 -79q-103 -107 -103 -191q0 -45 33 -78q14 -13 45.5 -33t44.5 -36q28 -31 33 -82v-4q0 -6 -5.5 -11.5t-11.5 -7.5q-53 -11 -118 -43t-124.5 -75.5t-102 -100.5t-48.5 -110l-2 -27q0 -40 13.5 -66.5t34 -36.5 t33.5 -13t24 -3h16q83 0 190.5 68t185 168t77.5 182v8q0 9 6 16t14 7l8 -2q65 -22 99 -52t34 -77q0 -39 -22 -84q-75 -156 -226.5 -251t-322.5 -95q-133 0 -215 79.5t-82 196.5zM522 1339q0 15 2 21q12 38 29 56t53 18h10q54 -3 54 -52q0 -15 -6 -30q-21 -64 -72 -64h-4 q-66 0 -66 51zM743 1331q0 15 2 21q12 38 29 55.5t53 17.5h11q53 -3 53 -51q0 -16 -6 -31q-22 -63 -72 -63h-4q-66 0 -66 51z" />
<glyph unicode="&#xcc;" horiz-adv-x="595" d="M0 643q0 27 6 51q16 59 59.5 139t101 155.5t129.5 130t134 59.5l37 2q33 0 65 -5t64 -15t52 -30.5t20 -48.5q0 -13 -11 -39q-25 -58 -109 -297.5t-149 -447.5q-95 -297 -98 -379q0 -20 -18 -20h-21q-103 0 -115 53l-2 16q0 80 91 387q61 205 138.5 433.5t110.5 308.5 q-4 2 -12 2q-40 0 -110.5 -93.5t-124.5 -196.5t-64 -146l-2 -27q0 -16 6 -19q7 -1 12 -7.5t5 -12.5q0 -15 -15 -18q-64 -19 -92 -19q-29 0 -53 12q-35 21 -35 72zM508 1389q0 20 17.5 40.5t37.5 20.5q7 0 19 -8q18 -15 79 -84t66 -76q4 -4 4 -10q0 -10 -11.5 -21.5 t-21.5 -11.5q-6 0 -8 2q-4 3 -45 33t-80.5 59.5t-50.5 38.5q-6 6 -6 17z" />
<glyph unicode="&#xcd;" horiz-adv-x="610" d="M0 643q0 19 8 51q16 59 59.5 139t101 155.5t128.5 130t133 59.5l37 2q33 0 66 -5t65 -15t52 -30.5t20 -48.5q0 -13 -11 -39q-24 -52 -107 -290.5t-151 -454.5q-95 -297 -98 -379q0 -20 -20 -20h-21q-100 0 -112 53l-3 16q0 80 91 387q61 205 138.5 433.5t110.5 308.5 l-12 2q-41 0 -112 -93.5t-124.5 -197t-62.5 -145.5l-2 -29q0 -15 4 -17q17 -3 17 -20q0 -15 -15 -18q-59 -19 -90 -19q-32 0 -53 12q-37 22 -37 72zM500 1325q0 9 6 12q1 1 26 18.5t53.5 38t58 40.5t40.5 26q4 2 12 2q19 0 34 -20.5t15 -42.5q0 -17 -12 -23 q-58 -28 -203 -86l-4 -2q-9 0 -17.5 12.5t-8.5 24.5z" />
<glyph unicode="&#xce;" horiz-adv-x="610" d="M0 643q0 27 6 51q16 59 59.5 139t101 155.5t129.5 130t134 59.5l37 2q33 0 65 -5t64 -15t52 -30.5t20 -48.5q0 -13 -11 -39q-25 -58 -109 -297.5t-149 -447.5q-95 -297 -98 -379q0 -20 -18 -20h-21q-103 0 -115 53l-2 16q0 80 91 387q61 205 138.5 433.5t110.5 308.5 l-12 2q-41 0 -112 -93.5t-124.5 -197t-62.5 -145.5l-2 -27q0 -16 6 -19q7 -1 12 -7.5t5 -12.5q0 -15 -15 -18q-64 -19 -92 -19q-32 0 -53 12q-35 21 -35 72zM520 1298q0 7 6 13q13 12 67 67.5t71 71.5q8 8 26 8q22 0 25 -14q0 -21 7.5 -78.5t14.5 -79.5l2 -8q0 -8 -12 -8h-8 q-3 0 -7.5 0.5t-7 1t-6 1t-5.5 2t-4.5 4t-4.5 5.5q-19 39 -27 86q-84 -75 -116 -92h-2q-7 0 -13 6t-6 14z" />
<glyph unicode="&#xcf;" horiz-adv-x="595" d="M0 643q0 27 6 51q17 60 60.5 139t101 155t129 130.5t133.5 59.5l37 2q33 0 65.5 -5t64.5 -15t51.5 -30.5t19.5 -48.5q0 -18 -9 -39q-25 -54 -109 -293t-151 -452q-95 -297 -98 -379v-4q0 -16 -18 -16h-21q-103 0 -115 53l-2 16q0 85 93 387q59 203 136 432t111 310 q-4 2 -12 2q-40 0 -110.5 -93.5t-124 -197t-62.5 -145.5q-4 -24 -4 -31q0 -12 6 -15q17 -3 17 -20q0 -15 -15 -18q-64 -19 -92 -19q-29 0 -53 12q-35 21 -35 72zM444 1331q0 15 2 21q12 38 29 55.5t53 17.5h11q53 -3 53 -51q0 -16 -6 -31q-21 -63 -72 -63h-4q-66 0 -66 51z M666 1323q0 14 2 20q12 38 29 56t53 18h10q53 -3 53 -51q0 -16 -6 -31q-21 -63 -74 -63h-4q-63 0 -63 51z" />
<glyph unicode="&#xd0;" horiz-adv-x="1284" d="M0 879q0 55 27 79q255 220 657 220h25q98 -1 184 -23t157.5 -66.5t118.5 -119.5t60 -174q6 -43 6 -90q0 -139 -49.5 -282.5t-135 -260t-212 -190.5t-267.5 -74q-93 0 -200 44.5t-162 112.5q-6 9 -6 21t5 21t11 9h2q104 -47 158 -59v19q0 114 98 438h-76q-22 0 -22 33 q0 24 13 49t26 26l35 2l57 -2q95 307 135 392q8 22 51 22q40 0 80.5 -19.5t40.5 -43.5l-2 -9q-62 -156 -127 -344q87 0 115 -4q22 -3 22 -31q0 -24 -14 -48.5t-29 -24.5h-131q-127 -375 -127 -461l2 -14q91 1 177 50.5t150 131t113 181.5t74 204.5t25 196.5q0 109 -38 182.5 t-112 87.5q-65 12 -135 12q-191 0 -358 -78q-118 -51 -197.5 -128.5t-99.5 -168.5q-3 -18 -21 -18q-10 0 -16 4q-33 15 -60.5 76t-27.5 119z" />
<glyph unicode="&#xd1;" horiz-adv-x="1083" d="M0 643q0 27 6 51q21 71 73 161t116 163q127 152 235 160l39 2q32 0 63 -4t62.5 -13.5t51.5 -29t22 -46.5v-8q0 -5 -9 -37q-29 -67 -138.5 -382t-164.5 -504q19 30 89.5 159t148.5 265t164 276.5t161 230.5t115 91q58 0 99.5 -26.5t42.5 -80.5q0 -14 -3.5 -30.5t-7 -27.5 t-11 -31t-9.5 -26q-264 -721 -264 -933q0 -70 24 -89q8 -8 8 -16t-5.5 -14t-14.5 -6q-40 0 -60.5 1t-47.5 8t-40 21t-22.5 40t-9.5 65v4q0 52 14 131.5t31 149t50.5 180t52.5 168t57.5 172.5t46.5 139q-54 -64 -137.5 -191.5t-136.5 -216t-169 -286.5q-182 -309 -221 -373 q-6 -12 -20 -12q-27 0 -42.5 1t-37.5 5.5t-34.5 16t-16.5 30.5l-3 20q0 80 91 383q60 200 137 429t110 313q-4 2 -12 2q-40 0 -110.5 -93.5t-124 -197t-62.5 -145.5q-4 -24 -4 -31q0 -12 6 -15q17 -3 17 -20q0 -15 -15 -18q-59 -19 -90 -19t-55 12q-35 21 -35 72zM727 1376 q0 10 8.5 17.5t18.5 7.5q11 0 14 -8q17 -29 41 -29q10 0 21.5 4t19.5 8t24 13.5t23 13.5q26 16 51 16q40 0 74 -63l2 -8q0 -10 -7 -17.5t-16 -7.5q-13 0 -20 10q-11 17 -29 17q-6 0 -15 -3.5t-16 -7t-21.5 -12t-22.5 -12.5q-38 -19 -64 -19q-51 0 -84 70z" />
<glyph unicode="&#xd2;" horiz-adv-x="872" d="M0 485v13q2 74 27.5 165t73 181.5t107.5 166t139.5 122.5t160.5 47q154 0 226.5 -101.5t72.5 -271.5q0 -144 -45 -305q-44 -159 -114 -293t-169 -222.5t-203 -88.5q-200 0 -200 239q0 89 24 180q-100 23 -100 168zM213 76q0 -86 45 -94h8q43 0 94.5 66.5t93.5 161.5 t70 169.5t41 120.5q72 252 72 399q0 182 -113 182h-16q-57 -6 -109.5 -63.5t-87.5 -137t-57 -154.5t-29 -130q18 12 43 12q16 0 35 -4.5t39 -11t27 -8.5q12 -3 12 -19q0 -10 -6 -16q-48 -48 -99 -189q19 -13 19 -28l-2 -6q-3 -5 -8 -7t-14.5 -3t-10.5 -1q-47 -137 -47 -239z M526 1432q0 19 18 40t38 21q6 0 18 -8q18 -15 79 -84t66 -76q5 -5 5 -10q0 -11 -11 -22t-22 -11l-6 2q-15 10 -88 63.5t-91 67.5q-6 6 -6 17z" />
<glyph unicode="&#xd3;" horiz-adv-x="878" d="M0 485v13q2 74 27.5 165t73 181.5t107.5 166t139.5 122.5t160.5 47q154 0 226.5 -101.5t72.5 -271.5q0 -144 -45 -305q-44 -159 -114 -293t-169 -222.5t-203 -88.5q-200 0 -200 239q0 89 24 180q-100 23 -100 168zM213 76q0 -86 45 -94h8q43 0 94.5 66.5t93.5 161.5 t70 169.5t41 120.5q72 252 72 399q0 182 -113 182h-16q-57 -6 -109.5 -63.5t-87.5 -137t-57 -154.5t-29 -130q18 12 43 12q16 0 35 -4.5t39 -11t27 -8.5q12 -3 12 -19q0 -10 -6 -16q-48 -48 -99 -189q19 -13 19 -28l-2 -6q-3 -5 -8 -7t-14.5 -3t-10.5 -1q-47 -137 -47 -239z M438 1339q0 10 6 13q1 0 26 18.5t54 39t58.5 40.5t40.5 25q4 2 12 2q19 0 34 -21t15 -43q0 -16 -12 -22q-47 -25 -201 -86l-4 -2q-10 0 -19.5 12.5t-9.5 23.5z" />
<glyph unicode="&#xd4;" horiz-adv-x="860" d="M0 485v13q1 61 19.5 135.5t50.5 150.5t79 147.5t101.5 126.5t121 88.5t134.5 33.5q106 0 175 -50.5t97.5 -131.5t28.5 -191q0 -144 -45 -305q-33 -118 -82.5 -224.5t-111 -192.5t-137.5 -136.5t-155 -50.5q-200 0 -200 239q0 89 24 180q-100 23 -100 168zM213 76 q0 -86 45 -94h8q43 0 94 66.5t93.5 161.5t70.5 170t41 120q72 252 72 399q0 182 -113 182h-16q-57 -6 -109.5 -63.5t-87.5 -137t-57 -154.5t-29 -130q18 12 43 12q16 0 34.5 -4.5t37.5 -11t27 -8.5q14 -4 14 -21q0 -8 -6 -14q-46 -46 -101 -189q21 -14 21 -28l-2 -6 q-3 -5 -8 -7t-14.5 -3t-10.5 -1q-47 -137 -47 -239zM489 1325q0 5 7 12q13 12 66.5 68t70.5 72q8 8 26 8q22 0 25 -15q9 -114 23 -157l2 -8q0 -9 -13 -9h-8q-2 0 -8 1t-8.5 1.5t-6.5 2t-7 4t-5 6.5q-15 31 -26 86q-76 -67 -115 -90h-4q-6 0 -12.5 5.5t-6.5 12.5z" />
<glyph unicode="&#xd5;" horiz-adv-x="849" d="M0 485v13q2 74 27.5 165t73.5 181.5t108 166t139 122.5t160 47q154 0 226.5 -101.5t72.5 -271.5q0 -144 -45 -305q-44 -159 -114 -293t-169 -222.5t-203 -88.5q-200 0 -200 239q0 89 24 180q-100 23 -100 168zM213 76q0 -86 45 -94h8q43 0 94.5 66.5t93.5 161.5t70 169.5 t41 120.5q72 252 72 399q0 182 -113 182h-16q-57 -6 -109.5 -63.5t-87.5 -137t-57 -154.5t-29 -130q21 12 45 12q16 0 34.5 -4.5t37.5 -11t27 -8.5q14 -4 14 -19q0 -8 -8 -16q-48 -48 -99 -189q19 -13 19 -28l-2 -6q-1 -3 -5.5 -5.5t-8.5 -3t-10.5 -1.5t-8.5 -1 q-47 -137 -47 -239zM451 1374q0 10 8.5 17.5t17.5 7.5q7 0 15 -8q17 -29 43 -29q9 0 20 4t19 8.5t23.5 13.5t23.5 13q26 16 49 16q40 0 75 -65l3 -9q0 -9 -7.5 -15.5t-17.5 -6.5q-11 0 -18 10q-11 17 -29 17q-5 0 -11 -1.5t-14 -5.5t-14.5 -7.5t-18 -10t-18.5 -10.5 q-38 -19 -63 -19q-51 0 -84 70z" />
<glyph unicode="&#xd6;" horiz-adv-x="866" d="M0 485v13q1 61 19.5 135.5t50.5 150.5t79 147.5t101.5 126.5t121 88.5t134.5 33.5q106 0 175 -50.5t97.5 -131.5t28.5 -191q0 -144 -45 -305q-33 -118 -82.5 -224.5t-111 -192.5t-137.5 -136.5t-155 -50.5q-202 0 -202 237q0 80 26 182q-100 23 -100 168zM213 76 q0 -86 45 -94h8q43 0 94 66.5t93.5 161.5t70.5 170t41 120q72 252 72 399q0 182 -113 182h-16q-46 -5 -90 -44.5t-76 -95.5t-58 -122t-40.5 -123.5t-18.5 -99.5q18 12 43 12q16 0 34.5 -4.5t37.5 -11t27 -8.5q14 -4 14 -21q0 -8 -6 -14q-46 -46 -101 -189q21 -14 21 -30 l-2 -4q-3 -5 -8 -7t-14.5 -3t-10.5 -1q-47 -137 -47 -239zM397 1346q0 12 2 18q12 39 30 57.5t56 18.5h7q53 -3 53 -54q0 -15 -6 -30q-22 -64 -72 -64q-70 0 -70 54zM618 1337q0 10 3 19q12 40 28.5 58t52.5 18h11q51 -3 51 -54q0 -8 -4 -28q-20 -63 -74 -66q-36 0 -52 15.5 t-16 37.5z" />
<glyph unicode="&#xd8;" horiz-adv-x="860" d="M0 485v13q2 74 27.5 165t73 181.5t107.5 166t139.5 122.5t160.5 47q108 0 180 -56q22 43 39 68q5 8 18 8q16 0 34 -13.5t18 -29.5q0 -6 -4 -14l-45 -82q59 -95 59 -254q0 -144 -45 -305q-44 -159 -114 -293t-169 -222.5t-203 -88.5q-37 0 -75 10l-29 -68q-8 -16 -27 -16 q-15 0 -29 12t-14 27l2 8q4 14 29 78q-57 60 -57 188q0 89 24 180q-100 23 -100 168zM219 150q210 476 406 851q-26 80 -103 80h-14q-57 -6 -109.5 -63.5t-87.5 -137t-57 -154.5t-29 -130q18 12 43 12q16 0 35 -4.5t39 -11t27 -8.5q12 -3 12 -19q0 -10 -6 -16 q-46 -46 -101 -189q21 -14 21 -28l-2 -6q-3 -5 -8 -7t-14.5 -3t-10.5 -1q-31 -98 -41 -165zM238 -8q7 -7 20 -10h8q43 0 94.5 66.5t93.5 161.5t70 169.5t41 120.5q1 5 11 41.5t16.5 64.5t16 69.5t16.5 83t10 79.5q-165 -332 -397 -846z" />
<glyph unicode="&#xd9;" horiz-adv-x="1093" d="M0 643q0 27 6 51q19 70 70.5 160t116.5 164q131 152 237 160l37 2q45 0 87.5 -7.5t78 -31t35.5 -58.5q0 -15 -11 -41q-34 -82 -141 -391q-1 -2 -26 -75t-49 -146t-51.5 -162t-44.5 -161t-17 -105q0 -22 8 -25h2q35 0 178.5 221t275.5 453.5t154 288.5q74 197 82 215 q10 23 51 23q40 0 80.5 -20t40.5 -42l-2 -10q-87 -201 -211.5 -598t-124.5 -561l2 -27q0 -22 -22 -22h-13q-59 0 -93 29.5t-34 88.5v4q0 136 144 607q-5 -8 -65 -121t-103.5 -188.5t-106.5 -177t-116 -159t-90 -63.5q-12 -2 -33 -2q-73 0 -108.5 54t-35.5 143q0 7 5 65 q24 159 130 473t162 447l-10 2q-41 0 -112 -94t-125 -197.5t-64 -146.5l-2 -27q0 -16 6 -19q17 -3 17 -20q0 -12 -15 -18q-64 -19 -92 -19q-29 0 -53 12q-35 21 -35 72zM745 1421q0 20 18 41t38 21q6 0 18 -8q12 -10 47 -48.5t67 -74.5l32 -35q4 -4 4 -10q0 -12 -12 -23.5 t-23 -11.5l-6 2q-9 7 -87 64.5t-89 66.5q-7 7 -7 16z" />
<glyph unicode="&#xda;" horiz-adv-x="1112" d="M0 643q0 27 6 51q19 70 71.5 160t117.5 164q127 152 235 160l37 2q33 0 66 -5t65 -15t52 -30.5t20 -48.5q0 -13 -11 -39q-34 -82 -141 -391q-23 -64 -59.5 -170t-82.5 -266t-46 -213q0 -22 8 -25h2q34 0 177.5 221t275.5 453t155 289q37 103 80 215q10 23 51 23 q40 0 81.5 -20t41.5 -44l-2 -8q-86 -199 -211 -599.5t-125 -563.5v-23q0 -9 -5.5 -15.5t-14.5 -6.5h-13q-126 0 -129 118v4q0 136 144 607q-6 -12 -42.5 -81t-64 -119.5t-72.5 -130t-82.5 -137t-78.5 -115t-77 -90t-62 -36.5q-12 -2 -35 -2q-72 0 -108 53t-36 140q0 25 7 69 q22 157 123.5 457.5t166.5 462.5l-10 2q-41 0 -112 -94t-124.5 -198t-62.5 -146q-4 -24 -4 -31q0 -12 6 -15q17 -3 17 -18q0 -14 -15 -20q-59 -19 -90 -19t-55 12q-35 21 -35 72zM788 1354q0 7 7 14q5 5 80.5 58t95.5 63l14 4q18 0 32.5 -22t14.5 -44q0 -17 -10 -22 q-58 -28 -203 -86l-4 -2q-10 0 -18.5 12t-8.5 25z" />
<glyph unicode="&#xdb;" horiz-adv-x="1126" d="M0 643q0 27 6 51q19 70 71.5 160t117.5 164q127 152 235 160l37 2q33 0 66 -5t65 -15t52 -30.5t20 -48.5q0 -13 -11 -39q-34 -82 -141 -391q-23 -64 -59.5 -170t-82.5 -266t-46 -213q0 -22 8 -25h2q34 0 177.5 221t275.5 453t155 289q37 103 80 215q10 23 51 23 q40 0 81.5 -20t41.5 -44l-2 -8q-86 -199 -211 -599.5t-125 -563.5v-23q0 -9 -5.5 -15.5t-14.5 -6.5h-13q-126 0 -129 118v4q0 136 144 607q-6 -12 -42.5 -81t-64 -119.5t-72.5 -130t-82.5 -137t-78.5 -115t-77 -90t-62 -36.5q-12 -2 -35 -2q-72 0 -108 53t-36 140q0 25 7 69 q22 157 123.5 457.5t166.5 462.5l-10 2q-41 0 -112 -94t-124.5 -198t-62.5 -146q-4 -24 -4 -31q0 -12 6 -15q17 -3 17 -18q0 -14 -15 -20q-59 -19 -90 -19t-55 12q-35 21 -35 72zM766 1313q0 6 6 12q13 12 66.5 67.5t70.5 71.5q9 9 27 9q22 0 25 -15q10 -119 22 -158l2 -8 q0 -8 -12 -8h-8q-2 0 -9.5 1t-10.5 1.5t-7.5 3.5t-7.5 8q-17 35 -27 86q-76 -67 -115 -90h-4q-6 0 -12 6t-6 13z" />
<glyph unicode="&#xdc;" horiz-adv-x="1099" d="M0 643q0 27 6 51q19 70 70.5 160t116.5 164q127 152 235 160l37 2q46 0 89 -7.5t78.5 -31t35.5 -58.5q0 -15 -11 -41q-34 -82 -141 -391q-1 -2 -26 -75t-49 -146t-51.5 -162t-44.5 -161t-17 -105q0 -22 8 -25h2q35 0 178.5 221t275.5 453.5t154 288.5q56 158 82 215 q10 23 51 23q40 0 80.5 -20t40.5 -42l-2 -10q-86 -199 -211 -599.5t-125 -563.5v-27q0 -7 -6 -12.5t-14 -5.5h-13q-59 0 -93.5 29t-35.5 89q0 145 146 611q-5 -8 -65 -121t-103.5 -188.5t-106.5 -177t-116 -159t-90 -63.5q-12 -2 -33 -2q-73 0 -108.5 54t-35.5 141 q0 38 5 67q24 159 130 473t162 447l-12 2q-41 0 -112 -94t-124.5 -198t-62.5 -146l-2 -27q0 -16 6 -19q15 -3 15 -18q0 -14 -13 -20q-64 -19 -92 -19q-32 0 -53 12q-35 21 -35 72zM680 1348q0 14 2 20q12 38 29 56t53 18h10q51 -3 51 -51q0 -16 -6 -31q-22 -64 -71 -64 q-68 0 -68 52zM899 1337q0 11 4 23q10 37 28 55.5t54 18.5h10q52 -3 52 -52q0 -12 -7 -30q-22 -64 -71 -64q-70 0 -70 49z" />
<glyph unicode="&#xdd;" horiz-adv-x="1112" d="M0 643q0 27 6 51q19 70 70.5 160t116.5 164q131 152 237 160l51 2q89 0 125.5 -31.5t36.5 -91.5q0 -65 -41 -183q-38 -117 -57 -177t-43.5 -156.5t-24.5 -139.5v-16q3 -16 6 -16l13 4q101 37 243 250q87 129 170.5 290t110.5 242q9 23 53 23t86.5 -19t42.5 -45l-2 -8 q-11 -34 -34 -112.5t-41.5 -139.5t-48.5 -152.5t-57.5 -163.5t-66.5 -158.5t-77 -152t-87 -130.5t-98.5 -107t-109.5 -68t-123 -26q-76 0 -119 34.5t-43 96.5q0 31 12 69q3 15 19 15q8 0 14 -6t6 -13q1 -32 31 -47.5t69 -15.5l33 4q60 14 124.5 88.5t114 169t99 216.5 t77 205.5t50.5 161.5q-31 -64 -65 -128.5t-89.5 -154.5t-107 -156.5t-112 -114.5t-111.5 -50h-8q-74 0 -108 42t-34 110q0 37 4 57q4 28 10 56.5t15 61.5t15 54.5t19.5 60.5t18 52.5t20 56.5t17.5 49q66 168 66 209l-2 13q-6 6 -15 6t-35 -15q-71 -48 -160 -190t-108 -231 l-2 -27q0 -16 6 -19q17 -3 17 -20q0 -12 -15 -18q-64 -19 -92 -19q-32 0 -53 12q-35 21 -35 72zM721 1292q0 9 6 15l25 18q26 18 54.5 37.5t58 39t40.5 25.5l15 5q18 0 32.5 -21.5t14.5 -42.5q0 -18 -13 -25q-63 -30 -202 -86l-4 -2q-9 0 -18 12.5t-9 24.5z" />
<glyph unicode="&#xde;" horiz-adv-x="1210" d="M0 621q0 28 8 49q13 44 83 89t175 77q190 61 400 61q55 171 90 258q12 23 53 23t81 -19t40 -43l-82 -235q62 -13 115.5 -35.5t98.5 -56.5t71 -83t26 -108v-10q-6 -150 -128 -260.5t-279 -124.5h-21q-54 0 -92 30q-74 -250 -74 -313q0 -20 -20 -20h-21q-100 0 -112 53 l-2 18q0 90 81 368t144 466q-156 -15 -299 -96q-88 -47 -147.5 -104.5t-59.5 -94.5q0 -21 -23 -21q-33 0 -69.5 38t-36.5 94zM662 311l22 -2q60 0 131.5 46.5t126 115.5t70.5 133q6 24 6 45q0 65 -50.5 98.5t-148.5 49.5q-82 -242 -157 -486z" />
<glyph unicode="&#xdf;" horiz-adv-x="911" d="M0 -23q0 132 115 539q123 426 200 531q53 69 112.5 100t150.5 31q175 0 264 -86q69 -63 69 -168q0 -117 -82 -228t-196 -143q44 -22 75.5 -51.5t51.5 -77.5q18 -42 18 -111q0 -81 -29 -163t-77 -140q-51 -60 -107 -86t-143 -26h-10q-67 0 -121 28t-68 82v2q0 8 25 8 q31 0 37 -14q16 -37 82 -37q25 0 57 8q44 13 89.5 78t75 153t29.5 165q0 32 -6 59q-12 52 -41 75t-90 32q-15 9 -38.5 33.5t-30.5 39.5q-2 4 -2 11t5 12.5t13 5.5h25q54 0 102 22t82.5 59.5t59.5 78.5t42 88q27 76 27 119q0 83 -74 100q-24 6 -47 6q-64 0 -110 -44.5 t-84 -113.5q-27 -50 -79.5 -205.5t-105.5 -338.5q-107 -383 -110 -492q0 -9 -5.5 -14.5t-13.5 -5.5h-20q-103 0 -115 53q-2 6 -2 26z" />
<glyph unicode="&#xe0;" d="M-47 229q0 104 44 216.5t127 194t179 81.5h2q82 0 119 -57l16 36q12 23 49 23q38 0 75.5 -19t37.5 -42l-2 -9q-43 -105 -102 -288t-62 -277q0 -47 13 -47h2q71 2 256 393q6 12 18 12q4 0 8 -2q12 -8 12 -18q0 -4 -2 -8q-24 -52 -39 -82.5t-44 -88t-52 -93t-51.5 -75 t-54.5 -59t-49 -20.5h-27q-101 0 -127 47q-16 27 -16 86q0 20 4 66q-93 -162 -195 -162q-70 1 -104.5 53.5t-34.5 138.5zM115 209q0 -55 30 -55q28 1 72 59t76 117t45 92q31 84 31 125q0 51 -33 59l-12 2q-43 0 -93.5 -74.5t-83 -169t-32.5 -155.5zM322 975q0 20 17.5 40.5 t37.5 20.5q6 0 18 -8q12 -10 47 -48.5t67 -73.5l32 -36q4 -4 4 -10q0 -12 -11.5 -23.5t-21.5 -11.5l-6 2q-7 5 -85.5 62.5t-92.5 68.5q-6 6 -6 17z" />
<glyph unicode="&#xe1;" d="M-47 229q0 104 44 216.5t127 194t179 81.5h2q84 0 121 -57l14 36q12 23 52 23q38 0 75 -19t37 -42l-2 -9q-43 -105 -102 -288t-62 -277q0 -47 11 -47h2q77 2 256 393q6 12 18 12q6 0 10 -2q10 -7 10 -16q0 -6 -2 -10q-188 -414 -290 -418h-25q-101 0 -127 47 q-16 27 -16 86q0 20 4 66q-93 -162 -197 -162q-70 1 -104.5 53.5t-34.5 138.5zM117 209q0 -55 30 -55q28 1 72 59t76 117t45 92q29 78 29 127t-31 57l-12 2q-43 0 -93.5 -74.5t-83 -169t-32.5 -155.5zM297 858q0 8 6 14q5 5 81 58t97 63l13 4q19 0 33 -20.5t14 -42.5 q0 -20 -11 -25q-63 -30 -202 -86l-4 -2q-10 0 -18.5 12t-8.5 25z" />
<glyph unicode="&#xe2;" d="M-47 229q0 104 44 216.5t127 194t179 81.5h2q84 0 121 -57l14 36q12 23 52 23q38 0 74 -19t36 -42l-2 -9q-160 -423 -162 -565v-14q0 -33 11 -33h2q24 1 59.5 42.5t73 108.5t67 124.5t56.5 117.5q6 12 18 12q6 0 10 -2q10 -7 10 -16q0 -6 -2 -10q-24 -52 -39 -82.5 t-44 -88t-52 -93t-51.5 -75t-54.5 -59t-49 -20.5h-25q-101 0 -127 47q-16 27 -16 86q0 20 4 66q-93 -162 -197 -162q-70 1 -104.5 53.5t-34.5 138.5zM117 209q0 -55 30 -55q28 1 72 59t76 117t45 92q29 78 29 127t-31 57l-12 2q-43 0 -93.5 -74.5t-83 -169t-32.5 -155.5z M303 829q0 7 6 13q13 12 66.5 67.5t70.5 71.5q8 8 27 8q25 0 25 -14q10 -121 24 -158l2 -8q0 -8 -14 -8h-8q-2 0 -9.5 1t-10.5 1.5t-7 3.5t-6 8q-20 42 -29 86q-78 -69 -114 -90h-4q-6 0 -12.5 6t-6.5 12z" />
<glyph unicode="&#xe3;" d="M-47 229q0 104 44 216.5t127 194t179 81.5h2q82 0 119 -57l16 36q12 23 49 23q38 0 75.5 -19t37.5 -42l-2 -9q-43 -105 -102 -288t-62 -277q0 -47 13 -47h2q24 1 59.5 42.5t73 108.5t67 124.5t56.5 117.5q6 12 18 12q4 0 8 -2q12 -8 12 -18q0 -4 -2 -8 q-28 -60 -48 -100.5t-55.5 -106t-64 -106t-62 -72.5t-60.5 -33h-27q-101 0 -127 47q-16 27 -16 86q0 20 4 66q-93 -162 -195 -162q-70 1 -104.5 53.5t-34.5 138.5zM115 209q0 -55 30 -55q28 1 73 60.5t75 114.5t47 93q29 78 29 127t-31 57l-12 2q-44 0 -95 -74.5t-83.5 -169 t-32.5 -155.5zM260 897q0 10 8.5 17.5t18.5 7.5q5 0 14 -9q17 -28 41 -28q9 0 20 4t19.5 8.5t24 13t24.5 13.5q26 16 49 16q42 0 74 -66l2 -8q0 -9 -7 -15.5t-16 -6.5q-10 0 -18 10q-13 16 -29 16q-13 0 -75 -34q-38 -19 -64 -19q-54 0 -84 70z" />
<glyph unicode="&#xe4;" horiz-adv-x="708" d="M-43 229q0 104 44 216.5t127 194t179 81.5h2q82 0 119 -57l16 36q12 23 50 23t75 -19t37 -42l-2 -9q-43 -105 -102 -288t-62 -277q0 -47 11 -47h2q77 2 256 393q6 12 20 12q4 0 8 -2q11 -7 11 -16q0 -4 -3 -10q-188 -414 -288 -418h-27q-101 0 -127 47q-16 27 -16 86 q0 20 4 66q-93 -162 -195 -162q-70 1 -104.5 53.5t-34.5 138.5zM119 209q0 -55 31 -55q28 1 72 59.5t75.5 117t44.5 91.5q31 84 31 125q0 51 -33 59l-12 2q-43 0 -93.5 -74.5t-83 -169t-32.5 -155.5zM242 868q0 15 2 21q12 38 29 56t53 18h10q51 -3 51 -52q0 -15 -6 -30 q-21 -64 -72 -64h-4q-63 0 -63 51zM461 862q0 13 2 19q12 37 30 55t54 18h10q51 -3 51 -51q0 -16 -6 -31q-22 -63 -72 -63q-69 0 -69 53z" />
<glyph unicode="&#xe5;" d="M-45 229q0 104 44 216.5t127 194t179 81.5h2q82 0 119 -57l16 36q12 23 50 23t75 -19t37 -42l-2 -9q-43 -105 -102 -288t-62 -277q0 -47 13 -47h2q75 2 254 393q6 12 20 12q4 0 8 -2q10 -7 10 -16q0 -6 -2 -10q-188 -414 -288 -418h-27q-101 0 -127 47q-16 27 -16 86 q0 20 4 66q-93 -162 -195 -162q-70 1 -104.5 53.5t-34.5 138.5zM117 209q0 -55 30 -55q28 1 72 59t76 117t45 92q31 84 31 125q0 51 -33 59l-12 2q-43 0 -93.5 -74.5t-83 -169t-32.5 -155.5zM338 881q0 26 16 63q36 66 90 66q18 0 33 -6q39 -16 39 -68q0 -37 -14 -62 q-35 -69 -90 -69q-14 0 -29 6q-45 19 -45 70zM395 870q0 -18 11 -18q18 0 40 45q17 33 17 53q0 17 -8 17q-20 0 -45 -49q-15 -27 -15 -48z" />
<glyph unicode="&#xe6;" horiz-adv-x="983" d="M-45 229q0 104 44 216.5t127 194t179 81.5h2q82 0 119 -57l16 36q16 25 50 25q27 0 51 -12.5t30 -30.5q64 41 129 41h9q62 -2 101.5 -32.5t39.5 -86.5v-4q-3 -108 -91 -217t-171 -109q-34 0 -60 23q-8 -33 -8 -80q0 -65 22 -112.5t68 -57.5q8 -2 25 -2q19 0 43 6 q146 55 303 383q6 12 16 12q5 0 13 -4q10 -3 10 -16q0 -6 -2 -10q-165 -345 -332 -406q-36 -10 -74 -10h-22q-101 3 -160 49v-35q0 -22 -43 -22q-32 0 -65 13.5t-39 31.5q-4 12 -4 51q0 33 8 111q-93 -162 -195 -162q-70 1 -104.5 53.5t-34.5 138.5zM117 209q0 -55 30 -55 q28 1 72 59t76 117t45 92q31 84 31 125q0 51 -33 59l-12 2q-43 0 -93.5 -74.5t-83 -169t-32.5 -155.5zM547 356q13 -8 31 -8q61 0 131.5 95t70.5 151q0 17 -8 22t-18 5q-31 0 -70.5 -40.5t-60.5 -74.5q-51 -72 -76 -150z" />
<glyph unicode="&#xe7;" horiz-adv-x="581" d="M-45 238q0 91 39 194q42 117 124 204t185 87q17 0 45 -4q56 -11 83.5 -49.5t27.5 -87.5q0 -61 -35 -105q-24 -31 -55 -31q-21 0 -39 15q-11 7 -11 14l5 12q49 86 49 117q0 16 -13 19h-6q-45 0 -115.5 -93t-101.5 -204q-14 -54 -14 -111q0 -61 19 -107t59 -59q15 -6 32 -6 q25 0 46 8q146 55 303 383q6 12 16 12q4 0 12 -4q11 -4 11 -16q0 -4 -3 -10q-164 -346 -329 -406q-36 -10 -74 -10h-22q-39 0 -66 6l-51 -63q21 6 45 6q50 0 74 -27q20 -23 20 -65q0 -25 -10 -52q-20 -52 -65.5 -79t-94.5 -27q-48 0 -72 27q-10 10 -10 32q0 30 17 47l4 2 q12 0 12 -8v-2q0 -1 -2 -7t-2 -9q0 -14 18 -19l25 -4q43 0 85 31.5t46 71.5v4q0 29 -39 29q-36 0 -66 -19h-4q-11 0 -27 20t-16 33v4q8 23 68 88q-127 54 -127 218z" />
<glyph unicode="&#xe8;" horiz-adv-x="581" d="M-45 238q0 91 39 194q27 73 68 135.5t105.5 109t135.5 46.5h6q62 -2 102 -32.5t40 -86.5v-4q-2 -70 -44 -147.5t-103.5 -128t-115.5 -50.5q-33 0 -59 23q-8 -33 -8 -80q0 -65 22 -112.5t68 -57.5q8 -2 25 -2q19 0 43 6q146 55 303 383q6 12 18 12q2 0 10 -4q11 -4 11 -16 q0 -4 -3 -10q-166 -348 -331 -406q-34 -10 -72 -10h-22q-123 4 -180.5 69t-57.5 169zM147 356q13 -8 29 -8q61 0 133 94.5t72 151.5q0 15 -10 22q-8 5 -17 5q-30 0 -68.5 -38.5t-64.5 -76.5q-50 -75 -74 -150zM276 936q0 19 18 40t38 21q6 0 18 -8q12 -10 47 -48.5t67 -74.5 l32 -35q4 -4 4 -10q0 -12 -12 -23.5t-23 -11.5l-6 2q-9 8 -87 65.5t-89 66.5q-7 7 -7 16z" />
<glyph unicode="&#xe9;" horiz-adv-x="583" d="M-45 238q0 91 39 194q21 53 49.5 102t67.5 93t89.5 70t104.5 26h6q62 -2 102 -32.5t40 -86.5v-4q-2 -70 -44 -147.5t-103.5 -128t-115.5 -50.5q-33 0 -59 23q-8 -33 -8 -80q0 -65 22 -112.5t68 -57.5q8 -2 25 -2q20 0 41 6q148 54 305 383q6 12 16 12q4 0 12 -4 q11 -4 11 -16q0 -6 -2 -10q-165 -346 -334 -406q-34 -10 -72 -10h-22q-123 4 -180.5 69t-57.5 169zM147 356q13 -8 31 -8q61 0 132 95t71 151q0 17 -8 22t-19 5q-30 0 -68.5 -38.5t-64.5 -76.5q-50 -75 -74 -150zM262 866q0 9 6 15q5 5 80.5 57.5t95.5 62.5l15 5 q18 0 32.5 -21.5t14.5 -42.5q0 -18 -12 -24q-56 -29 -201 -87l-4 -2q-10 0 -18.5 12t-8.5 25z" />
<glyph unicode="&#xea;" horiz-adv-x="581" d="M-45 238q0 91 39 194q27 73 68 135.5t105.5 109t135.5 46.5h6q62 -2 102 -32.5t40 -86.5v-4q-2 -70 -44 -147.5t-103.5 -128t-115.5 -50.5q-33 0 -59 23q-8 -50 -8 -80q0 -151 90 -170q8 -2 27 -2q17 0 41 6q146 55 303 383q6 12 18 12q2 0 10 -4q11 -4 11 -16 q0 -4 -3 -10q-166 -348 -331 -406q-34 -10 -72 -10h-22q-123 4 -180.5 69t-57.5 169zM147 356q13 -8 29 -8q61 0 133 94.5t72 151.5q0 15 -10 22q-8 5 -17 5q-30 0 -68.5 -38.5t-64.5 -76.5q-50 -75 -74 -150zM258 848q0 6 6 12q13 12 66.5 67.5t70.5 71.5q9 9 25 9 q24 0 27 -17q10 -120 24 -155l2 -9q0 -10 -22 -10q-28 4 -35 17q-20 51 -27 84q-81 -72 -114 -91h-2q-7 0 -14 6.5t-7 14.5z" />
<glyph unicode="&#xeb;" horiz-adv-x="583" d="M-43 238q0 91 39 194q20 53 48.5 102t67 93t89 70t104.5 26h6q62 -2 102 -32.5t40 -86.5v-4q-2 -70 -44 -147.5t-103.5 -128t-115.5 -50.5q-33 0 -59 23q-8 -33 -8 -80q0 -65 22 -112.5t68 -57.5q8 -2 25 -2q19 0 43 6q146 55 303 383q6 12 18 12l10 -4q11 -4 11 -16 q0 -6 -2 -10q-166 -347 -332 -406q-34 -10 -72 -10h-22q-123 4 -180.5 69t-57.5 169zM150 356q13 -8 28 -8q61 0 133 94.5t72 151.5q0 15 -10 22q-8 5 -19 5q-21 0 -50.5 -24.5t-47.5 -46.5t-33 -44q-48 -72 -73 -150zM176 883q0 14 2 20q12 38 29 56t53 18h10q52 -3 52 -53 q0 -4 -5 -29q-22 -64 -73 -64h-4q-34 0 -49 15t-15 37zM397 874q0 15 2 21q12 38 29 56t53 18h11q51 -3 51 -51q0 -16 -6 -31q-22 -64 -72 -64q-68 0 -68 51z" />
<glyph unicode="&#xec;" horiz-adv-x="358" d="M-61 137q0 58 20 150q21 103 60 220.5t71 190.5q9 25 49 25q38 0 76.5 -19.5t38.5 -41.5l-2 -9q-37 -96 -99.5 -297.5t-62.5 -279.5q0 -35 16 -35q25 1 60 42.5t72 108.5t65 124.5t55 117.5q6 12 19 12q6 0 10 -2q10 -7 10 -16q0 -6 -2 -10q-27 -60 -46.5 -100.5 t-54.5 -106t-62.5 -106t-60.5 -72.5t-60 -33h-27q-101 0 -127 47q-18 35 -18 90zM111 938q0 19 17.5 39t37.5 20q6 0 18 -8q12 -10 47 -48.5t67 -74.5l32 -35q4 -8 4 -12q0 -11 -11 -22t-22 -11l-6 2q-1 1 -81.5 60.5t-94.5 71.5q-8 5 -8 18z" />
<glyph unicode="&#xed;" horiz-adv-x="358" d="M-61 139q0 53 18 148q22 105 61.5 223.5t69.5 187.5q12 25 51 25q38 0 75.5 -19t37.5 -42l-2 -9q-160 -470 -160 -577q0 -35 16 -35q24 1 59 42.5t72 108t66 125t55 117.5q6 12 19 12q6 0 10 -2q10 -7 10 -16q0 -6 -2 -10q-27 -60 -46.5 -100.5t-54.5 -106t-62.5 -106 t-61.5 -72.5t-61 -33h-25q-101 0 -127 47q-18 35 -18 92zM119 856q0 11 6 14q5 5 81.5 58t96.5 63l14 4q18 0 31.5 -20.5t13.5 -42.5q0 -18 -10 -23q-63 -30 -202 -86l-5 -2q-10 0 -18 12t-8 23z" />
<glyph unicode="&#xee;" horiz-adv-x="360" d="M-59 133q0 71 18 154q22 105 61.5 223.5t69.5 187.5q12 25 51 25q38 0 75.5 -19t37.5 -42l-2 -9q-160 -470 -160 -577q0 -35 17 -35q24 1 59 42.5t72 108t65.5 125t54.5 117.5q6 12 19 12q6 0 10 -2q10 -7 10 -16q0 -6 -2 -10q-27 -60 -46.5 -100.5t-54.5 -106 t-62.5 -106t-61.5 -72.5t-61 -33h-25q-100 0 -129 47q-16 27 -16 86zM121 840q0 6 6 12q13 11 67 67t72 72q6 6 23 6q26 0 26 -14q9 -118 25 -158l2 -8q0 -8 -12 -8h-8q-3 0 -9 0.5t-8.5 1t-6.5 2t-6.5 4t-4.5 6.5q-23 48 -27 86q-72 -64 -117 -90h-2q-7 0 -13.5 6.5 t-6.5 14.5z" />
<glyph unicode="&#xef;" horiz-adv-x="360" d="M-61 137q0 58 20 150q22 105 61.5 223.5t69.5 187.5q12 25 51 25q38 0 75.5 -19t37.5 -42l-2 -9q-160 -470 -160 -577q0 -35 17 -35q72 2 251 393q6 12 19 12q4 0 8 -2q12 -8 12 -18q0 -4 -2 -8q-27 -60 -46.5 -100.5t-54.5 -106t-62.5 -106t-61.5 -72.5t-61 -33h-25 q-100 0 -129 47q-18 35 -18 90zM51 872q0 13 2 19q12 39 30 57.5t56 18.5h6q27 -1 40.5 -16t13.5 -38q0 -15 -6 -30q-22 -64 -72 -64q-70 0 -70 53zM272 864q0 13 2 19q12 39 30 57t56 18h7q53 -3 53 -53q0 -16 -6 -31q-22 -63 -72 -63q-70 0 -70 53z" />
<glyph unicode="&#xf0;" horiz-adv-x="712" d="M-45 229q0 104 44 216.5t126.5 194t177.5 81.5h2q82 0 117 -49l35 94h-117q-8 0 -14.5 8t-6.5 19q0 8 7 22q5 11 14 20t18 9q43 2 127 2q31 79 58 139q8 25 55 25q41 0 83 -18.5t42 -39.5v-6l-37 -104h84q18 -3 18 -27q0 -12 -4 -20q-17 -29 -32 -29h-95 q-186 -503 -202 -666l-2 -39q0 -20 4 -20q18 0 45 27q75 77 211 366q6 12 18 12q4 0 8 -2q13 -6 13 -18q0 -4 -2 -8q-139 -296 -222 -379q-39 -39 -69 -39h-31q-94 0 -115 49q-14 32 -14 94q0 20 4 74q-100 -180 -209 -180q-70 1 -104.5 53.5t-34.5 138.5zM117 209 q0 -55 30 -55q41 1 108.5 103.5t90.5 162.5q25 62 25 123q0 65 -43 65q-45 -1 -96 -75.5t-83 -168.5t-32 -155z" />
<glyph unicode="&#xf1;" horiz-adv-x="702" d="M-90 57q0 59 51 254q67 249 121 387q9 25 49 25t79.5 -19.5t39.5 -41.5l-2 -9q-7 -17 -28 -77.5t-40.5 -118t-21.5 -62.5q69 100 102 142q84 112 158 163q36 23 76 23t67 -23.5t27 -64.5l-2 -25q-6 -28 -66.5 -245t-60.5 -287q0 -37 10 -37h2q19 2 36.5 17t41.5 53 q43 73 153 323q6 12 17 12q9 0 15.5 -5.5t6.5 -14.5q0 -4 -2 -8q-115 -262 -155 -328q-30 -48 -55.5 -68t-55.5 -22l-57 -2q-61 0 -93 25t-32 94v18q3 60 33 175t60 208.5t30 99.5q0 13 -8 13t-21 -13q-27 -22 -94 -106q-72 -94 -180 -272q-45 -162 -45 -222q-3 -18 -25 -18 h-14q-115 0 -117 57zM274 891q0 12 9 19.5t20 7.5q9 0 14 -9q17 -28 41 -28q9 0 20 4t19 8.5t23.5 13.5t23.5 13q31 14 52 14q42 0 73 -64l2 -8q0 -9 -6.5 -15.5t-15.5 -6.5q-13 0 -21 10q-11 14 -26 14q-8 0 -18.5 -4.5t-28 -14t-29.5 -14.5q-36 -18 -66 -18q-51 0 -84 68z " />
<glyph unicode="&#xf2;" horiz-adv-x="616" d="M-41 236q0 107 42.5 218.5t121 190t168.5 78.5q24 0 51 -6q127 -32 127 -213q0 -79 -27 -170h7q50 0 96.5 27t72.5 73q6 12 17 12q4 0 12 -4q8 -3 8 -14q0 -8 -2 -12q-30 -58 -87.5 -90.5t-121.5 -32.5h-16q-18 -52 -44.5 -101t-62.5 -93.5t-83 -71.5t-97 -27 q-92 0 -137 65.5t-45 170.5zM106 154q0 -85 44 -91h6q28 0 58 30.5t55.5 79t40.5 84t28 69.5q-45 34 -45 96q0 44 23 82.5t53 46.5q-10 47 -47 47h-9q-46 -8 -96 -87t-80.5 -180.5t-30.5 -176.5zM301 926q0 19 17.5 39t37.5 20q7 0 19 -8q12 -10 47 -48.5t66 -74.5l32 -35 l4 -10q0 -12 -10.5 -22.5t-19.5 -10.5q-7 0 -9 2q-18 12 -89.5 64t-86.5 65q-8 5 -8 19z" />
<glyph unicode="&#xf3;" horiz-adv-x="618" d="M-41 233q0 108 42.5 220.5t121 191t168.5 78.5q24 0 51 -6q127 -32 127 -211q0 -81 -27 -172h7q52 0 97.5 26.5t71.5 73.5q9 12 19 12l10 -4q10 -3 10 -16q0 -6 -2 -10q-31 -58 -88 -90.5t-121 -32.5h-16q-19 -52 -46 -100.5t-63 -93.5t-83 -72t-97 -27q-92 0 -137 64.5 t-45 168.5zM109 156q0 -87 43 -93h6q28 0 58.5 31t55 77.5t41 85.5t25.5 69q-45 34 -45 96q0 44 23 82.5t53 46.5q-10 47 -47 47h-9q-46 -8 -95 -87.5t-79 -180t-30 -174.5zM227 852q0 8 6 14q5 5 81.5 58t97.5 63l14 4q18 0 31.5 -20.5t13.5 -42.5q0 -20 -10 -25 q-58 -28 -203 -86l-4 -2q-10 0 -18.5 12t-8.5 25z" />
<glyph unicode="&#xf4;" horiz-adv-x="618" d="M-41 233q0 108 42.5 220.5t121 191t168.5 78.5q24 0 51 -6q127 -32 127 -211q0 -81 -27 -172h7q52 0 97.5 26.5t71.5 73.5q9 12 19 12l10 -4q10 -3 10 -16q0 -6 -2 -10q-31 -58 -89 -90.5t-120 -32.5h-16q-19 -52 -46 -100.5t-63 -93.5t-83 -72t-97 -27q-92 0 -137 64.5 t-45 168.5zM106 156q0 -87 46 -93h6q28 0 58.5 31t55 77.5t41 85.5t25.5 69q-45 34 -45 96q0 44 23 82.5t53 46.5q-10 47 -47 47h-9q-46 -8 -96 -87.5t-80.5 -180t-30.5 -174.5zM227 823q0 7 6 13q15 14 71.5 72t66.5 69q9 6 24 6q24 0 27 -14q10 -121 24 -158v-6 q0 -10 -12 -10h-8q-2 0 -9.5 1t-10.5 1.5t-7.5 3.5t-7.5 8q-18 44 -26 86q-76 -67 -115 -90h-4q-6 0 -12.5 6t-6.5 12z" />
<glyph unicode="&#xf5;" horiz-adv-x="616" d="M-41 236q0 107 42.5 218.5t121 190t168.5 78.5q24 0 51 -6q125 -33 125 -209q0 -83 -27 -174h6q52 0 98.5 26.5t73.5 73.5q6 12 17 12l10 -4q10 -3 10 -16q0 -6 -2 -10q-31 -58 -88 -90.5t-121 -32.5h-16q-19 -53 -45.5 -101t-62 -93t-82.5 -72t-97 -27q-92 0 -137 65.5 t-45 170.5zM106 156q0 -87 44 -93h6q28 0 58.5 31t55 77.5t41 85.5t25.5 69q-45 34 -45 96q0 44 23 82.5t53 46.5q-10 47 -48 47h-8q-46 -8 -95.5 -87.5t-79.5 -180t-30 -174.5zM182 899q0 10 8.5 17.5t18.5 7.5q8 0 14 -9q17 -28 41 -28q10 0 21.5 4t19.5 8.5l24 13.5 t23 13q26 16 51 16q41 0 72 -63l2 -11q0 -9 -6.5 -15.5t-15.5 -6.5q-12 0 -19 10q-11 16 -28 16q-14 0 -76 -34q-38 -19 -64 -19q-54 0 -84 70z" />
<glyph unicode="&#xf6;" horiz-adv-x="616" d="M-43 233q0 107 43 219.5t122 191.5t169 79q24 0 51 -6q125 -33 125 -209q0 -83 -27 -174h6q52 0 98 26.5t72 73.5q9 12 19 12l10 -4q10 -3 10 -16q0 -6 -2 -10q-31 -58 -89 -90.5t-120 -32.5h-16q-19 -52 -46 -100.5t-63 -93.5t-83 -72t-97 -27q-92 0 -137 64.5 t-45 168.5zM106 156q0 -87 44 -93h6q28 0 58.5 31t55 77.5t41 85.5t25.5 69q-45 34 -45 96q0 44 23 82.5t53 46.5q-10 47 -48 47h-8q-46 -8 -95.5 -87.5t-79.5 -180t-30 -174.5zM162 862q0 15 2 21q12 39 29 57t53 18h10q51 -3 51 -53q0 -16 -6 -31q-20 -60 -72 -63 q-67 0 -67 51zM381 858l2 16q13 40 30.5 58t53.5 18h10q51 -3 51 -51q0 -16 -6 -31q-21 -63 -71 -63h-5q-65 0 -65 53z" />
<glyph unicode="&#xf8;" horiz-adv-x="618" d="M-39 233q0 108 42.5 220.5t121 191t168.5 78.5q24 0 51 -6q28 -7 57 -29q5 5 5 6q11 11 22 11q15 0 30 -13t15 -26q0 -9 -6 -15l-18 -24q20 -50 20 -119q0 -83 -27 -174h7q52 0 97.5 26.5t71.5 73.5q9 12 19 12l10 -4q10 -3 10 -16q0 -6 -2 -10q-31 -58 -89 -90.5 t-120 -32.5h-16q-19 -52 -46 -100.5t-63 -93.5t-83 -72t-97 -27q-43 0 -80 16l-18 -30q-7 -13 -25 -13q-14 0 -26 9.5t-12 23.5q0 10 6 19q16 32 20 38q-45 62 -45 170zM113 104q10 -38 39 -41h6q28 0 58.5 31t55 77.5t41 85.5t25.5 69q-37 29 -43 73q-99 -155 -182 -295z M121 264q141 227 215 332q-6 2 -23 2q-54 -10 -109.5 -113t-82.5 -221z" />
<glyph unicode="&#xf9;" horiz-adv-x="710" d="M-63 131q0 64 20 156q21 98 64.5 225.5t70.5 185.5q12 25 51 25q37 0 74 -18.5t37 -42.5l-2 -9q-160 -423 -162 -565v-14q0 -33 10 -33h2q44 0 115 115q73 121 143 319q41 123 84 223q9 23 52 23q38 0 75 -18t37 -41l-2 -9q-43 -105 -102 -288t-62 -277v-14q0 -33 11 -33 h2q35 0 104 104q65 101 152 289q6 12 18 12l10 -4q11 -4 11 -16q0 -4 -2 -8q-89 -195 -160 -303q-77 -112 -131 -115h-25q-101 0 -127 47q-16 27 -16 84q0 39 6 82q-26 -50 -47 -84q-80 -126 -144 -129h-24q-101 0 -127 47q-16 27 -16 84zM319 967q0 19 18 40t38 21 q6 0 18 -8q18 -15 79.5 -84t66.5 -76q4 -4 4 -10q0 -10 -11.5 -21.5t-21.5 -11.5l-6 2q-7 5 -85.5 62.5t-92.5 68.5q-7 7 -7 17z" />
<glyph unicode="&#xfa;" horiz-adv-x="712" d="M-63 131q0 64 20 156q23 100 66 228t69 183q12 25 53 25q37 0 74 -18.5t37 -42.5l-2 -9q-43 -105 -102 -288t-62 -277q0 -47 12 -47h2q45 0 113 115q73 116 145 319q41 123 84 223q9 23 50 23q39 0 75.5 -17.5t36.5 -41.5l-2 -9q-43 -106 -102 -288.5t-60 -276.5v-16 q0 -31 11 -31h2q37 0 102 104q72 112 154 289q6 12 16 12l12 -4q11 -4 11 -16q0 -4 -2 -8q-89 -197 -162 -303q-73 -112 -129 -115h-25q-100 0 -129 47q-16 32 -16 86q0 37 6 80q-6 -13 -45 -84q-80 -126 -144 -129h-26q-101 0 -127 47q-16 27 -16 84zM287 852q0 11 6 14 q5 5 80.5 58t95.5 63l14 4q18 0 32.5 -21t14.5 -42q0 -17 -12 -23q-16 -9 -106 -47t-95 -41h-4q-9 0 -17.5 12t-8.5 23z" />
<glyph unicode="&#xfb;" horiz-adv-x="710" d="M-66 133q0 58 21 154q23 99 66.5 226.5t70.5 184.5q12 25 51 25q37 0 74 -18.5t37 -42.5l-2 -9q-160 -423 -162 -565v-16q0 -31 10 -31h2q44 0 115 115q73 121 143 319q41 123 84 223q9 23 52 23q38 0 75 -18t37 -41l-2 -9q-43 -105 -102 -288t-62 -277q0 -47 11 -47h2 q35 0 104 104q65 101 152 289q6 12 18 12l10 -4q11 -4 11 -16q0 -4 -2 -8q-89 -195 -160 -303q-77 -112 -131 -115h-25q-101 0 -127 47q-16 27 -16 84q0 39 6 82q-26 -50 -47 -84q-80 -126 -144 -129h-24q-100 0 -129 47q-17 34 -17 86zM272 821q0 8 7 15q15 12 69 68.5 t68 70.5q9 6 24 6q24 0 27 -14q0 -21 7.5 -78.5t14.5 -79.5l3 -6q0 -10 -15 -10h-6q-1 0 -5.5 0.5t-6 1t-5 1t-5 1t-4 1.5t-4 2.5t-3 3.5t-2.5 5q-15 29 -26 84q-77 -68 -117 -90h-2q-8 0 -13.5 5.5t-5.5 12.5z" />
<glyph unicode="&#xfc;" horiz-adv-x="708" d="M-66 131q0 60 21 156q21 98 64.5 225.5t70.5 185.5q12 25 51 25q37 0 74 -18.5t37 -42.5l-2 -9q-160 -423 -162 -565v-14q0 -33 10 -33h2q44 0 115 115q73 121 143 319q41 123 84 223q9 23 52 23q37 0 73.5 -17.5t36.5 -39.5l-2 -11q-160 -423 -162 -565v-14 q0 -33 11 -33h2q35 0 104 104q65 101 152 289q6 12 18 12l10 -4q11 -4 11 -16q0 -2 -3 -8q-91 -200 -159 -303q-77 -112 -131 -115h-25q-101 0 -127 47q-16 27 -16 84q0 39 6 82q-26 -50 -47 -84q-80 -126 -144 -129h-24q-101 0 -127 47q-17 28 -17 84zM213 879q0 12 2 18 q12 38 29 56t53 18h10q53 -3 53 -51q0 -16 -6 -31q-22 -64 -71 -64q-70 0 -70 54zM434 868q0 15 2 21q12 39 30 57.5t56 18.5h6q52 -6 52 -56q0 -3 -5 -28q-22 -64 -73 -64q-68 0 -68 51z" />
<glyph unicode="&#xfd;" horiz-adv-x="690" d="M-98 -244l2 33q14 93 90 133.5t223 50.5q26 70 64 209q-98 -179 -172 -182h-27q-101 0 -127 49q-16 27 -16 84q0 110 54.5 290t100.5 275q12 25 51 25q38 0 75.5 -20t37.5 -44l-2 -8q-36 -90 -102 -295t-66 -282q0 -33 16 -33q47 4 115 115q79 131 146 321q28 102 71 219 q9 27 56 27q39 0 75.5 -17.5t36.5 -41.5l-2 -9q-25 -66 -80 -252q-97 -310 -137 -419q80 44 143 137q58 83 162 313q6 12 19 12q8 0 14 -5.5t6 -12.5q0 -6 -2 -10q-102 -230 -164 -320q-84 -122 -198 -168q-24 -63 -49 -110t-63 -97.5t-89.5 -78t-112.5 -27.5h-14 q-65 4 -100 41.5t-35 97.5zM-53 -233q0 -60 59 -60q55 0 106.5 63.5t90.5 159.5q-123 -7 -178.5 -36.5t-71.5 -86.5q-6 -21 -6 -40zM291 874q0 9 6 15q1 0 26 18t53.5 38t58 39.5t40.5 25.5l14 4q18 0 33 -21.5t15 -42.5q0 -18 -13 -24q-51 -26 -200 -86l-5 -2q-10 0 -19 12 t-9 24z" />
<glyph unicode="&#xfe;" horiz-adv-x="604" d="M-174 -315q0 107 121 559q77 289 163 570.5t117 342.5q9 23 52 23q40 0 79 -19t39 -41l-2 -8q-15 -35 -43 -117.5t-51 -157.5t-45 -147.5t-23 -75.5q75 108 154 111h6q72 0 109 -57.5t37 -149.5q0 -103 -40 -212t-118 -189t-170 -84h-8q-81 0 -121 55q-98 -376 -98 -444 v-4q0 -9 -5.5 -15t-13.5 -6l-43 -2q-80 0 -94 47zM129 215q0 -70 49 -70h4q43 3 89.5 76.5t75 166.5t28.5 157q0 63 -33 63h-2q-43 -4 -105.5 -107t-82.5 -165q-23 -88 -23 -121z" />
<glyph unicode="&#xff;" horiz-adv-x="690" d="M-98 -244l2 33q14 93 90 133.5t223 50.5q26 70 64 209q-98 -179 -172 -182h-27q-101 0 -127 49q-16 27 -16 84q0 110 54.5 290t100.5 275q12 25 51 25q38 0 75.5 -20t37.5 -44l-2 -8q-36 -90 -102 -295t-66 -282q0 -33 16 -33q47 4 115 115q79 131 146 321q28 102 71 219 q9 27 56 27q39 0 75.5 -17.5t36.5 -41.5l-2 -9q-25 -66 -80 -252q-97 -310 -137 -419q80 44 143 137q58 83 162 313q6 12 19 12q8 0 14 -5.5t6 -12.5q0 -6 -2 -10q-102 -230 -164 -320q-84 -122 -198 -168q-24 -63 -49 -110t-63 -97.5t-89.5 -78t-112.5 -27.5h-14 q-65 4 -100 41.5t-35 97.5zM-53 -233q0 -60 59 -60q55 0 106.5 63.5t90.5 159.5q-123 -7 -178.5 -36.5t-71.5 -86.5q-6 -21 -6 -40zM236 860q0 15 2 21q12 39 30 57t56 18h6q51 -3 51 -53q0 -21 -4 -31q-22 -63 -74 -63q-67 0 -67 51zM457 854q0 12 2 18q12 39 29 57.5 t53 18.5h10q51 -3 51 -53q0 -9 -4 -29q-20 -62 -74 -65q-67 0 -67 53z" />
<glyph unicode="&#x178;" horiz-adv-x="1122" d="M0 643q0 27 6 51q19 70 71.5 160t117.5 164q127 152 235 160l51 2q89 0 125.5 -31.5t36.5 -91.5q0 -65 -41 -183q-123 -377 -123 -473v-16q3 -16 6 -16l11 4q99 36 245 250q86 129 169 290t110 242q9 23 53 23t87.5 -19.5t43.5 -44.5l-2 -8q-11 -35 -34 -112t-42 -139.5 t-49.5 -153t-58 -163t-66.5 -159t-77 -152.5t-87 -130.5t-98.5 -106.5t-109.5 -68t-123 -26q-75 0 -118.5 35t-43.5 98q0 29 12 67q6 15 19 15q18 0 22 -19q0 -32 29.5 -47.5t68.5 -15.5l35 4q60 14 124 88.5t113 169t98.5 216.5t77 205.5t50.5 161.5q-29 -62 -64 -128.5 t-89.5 -155t-106.5 -155.5t-113 -115t-112 -50h-8q-74 0 -108 43t-34 113q0 17 4 53q9 62 32 141.5t38 121.5t47 128q64 168 64 207l-2 15q-3 6 -13 6q-13 0 -35 -15q-72 -48 -161 -190.5t-107 -230.5q-4 -24 -4 -31q0 -12 6 -15q17 -3 17 -18q0 -14 -15 -20 q-59 -19 -90 -19t-55 12q-35 21 -35 72zM678 1341q0 15 2 21q12 38 29 56t53 18h10q53 -3 53 -52q0 -15 -6 -30q-21 -64 -71 -64h-5q-65 0 -65 51zM899 1333q0 15 2 21q12 38 29 55.5t53 17.5h10q54 -3 54 -51q0 -13 -7 -30q-21 -64 -71 -64h-4q-66 0 -66 51z" />
<glyph unicode="&#x2018;" horiz-adv-x="425" />
<glyph unicode="&#x2019;" horiz-adv-x="503" />
<glyph unicode="&#x201a;" horiz-adv-x="397" />
<glyph unicode="&#x201c;" horiz-adv-x="540" />
<glyph unicode="&#x201d;" horiz-adv-x="585" />
<glyph unicode="&#x201e;" horiz-adv-x="591" />
<glyph unicode="&#x20ac;" horiz-adv-x="684" />
<glyph unicode="&#x25fc;" horiz-adv-x="727" d="M0 0v727h727v-727h-727z" />
</font>
</defs>
</svg>
